<svg id="kity_svg_6" xmlns="http://www.w3.org/2000/svg" xmlns:xlink="http://www.w3.org/1999/xlink" version="1.1" width="1534" height="2118" style="background: rgb(251, 251, 251) none repeat scroll 0% 0%; visibility: visible;" viewBox="0 0 1534 2118"><defs id="kity_defs_7"><linearGradient id="kity_linearGradient_17" x1="0" y1="0" x2="0" y2="1"><stop id="kity_stop_18" offset="0" stop-color="rgb(255, 255, 255)"></stop><stop id="kity_stop_19" offset="1" stop-color="rgb(204, 204, 204)"></stop></linearGradient><marker id="kity_marker_2" orient="auto" refX="6" refY="0" viewBox="-7 -7 14 14" markerWidth="7" markerHeight="7" markerUnits="userSpaceOnUse"><path id="kity_path_3" fill="rgb(123, 115, 191)" stroke="none" d="M6,0A6,6,0,1,1,-6,0A6,6,0,1,1,6,0"></path></marker></defs><g id="kity_g_8"><g id="minder1" text-rendering="optimize-speed"><g id="minder_connect_group1"><path id="kity_path_31" fill="none" stroke="rgb(123, 115, 191)" stroke-width="1" d="M90,1045.5A187.5,1008,0,0,1,277.5,37.5"></path><path id="kity_path_33" fill="none" stroke="rgb(123, 115, 191)" stroke-width="1" d="M484.5,37.5C504.5,37.5,504.5,37.5,524.5,37.5"></path><path id="kity_path_35" fill="none" stroke="rgb(123, 115, 191)" stroke-width="1" d="M90,1045.5A187.5,783,0,0,1,277.5,262.5"></path><path id="kity_path_37" fill="none" stroke="rgb(123, 115, 191)" stroke-width="1" d="M365.5,262.5C385.5,262.5,385.5,136.5,405.5,136.5"></path><path id="kity_path_39" fill="none" stroke="rgb(123, 115, 191)" stroke-width="1" d="M426.5,136.5C519.5,136.5,519.5,113.5,612.5,113.5"></path><path id="kity_path_41" fill="none" stroke="rgb(123, 115, 191)" stroke-width="1" d="M633.5,113.5C693.5,113.5,693.5,53.5,753.5,53.5"></path><path id="kity_path_43" fill="none" stroke="rgb(123, 115, 191)" stroke-width="1" d="M426.5,136.5C515.5,136.5,515.5,178.5,604.5,178.5"></path><path id="kity_path_45" fill="none" stroke="rgb(123, 115, 191)" stroke-width="1" d="M625.5,178.5C704,178.5,704,238.5,782.5,238.5"></path><path id="kity_path_47" fill="none" stroke="rgb(123, 115, 191)" stroke-width="1" d="M365.5,262.5C390,262.5,390,313.5,414.5,313.5"></path><path id="kity_path_49" fill="none" stroke="rgb(123, 115, 191)" stroke-width="1" d="M435.5,313.5C519,313.5,519,259.5,602.5,259.5"></path><path id="kity_path_51" fill="none" stroke="rgb(123, 115, 191)" stroke-width="1" d="M435.5,313.5C519,313.5,519,315.5,602.5,315.5"></path><path id="kity_path_53" fill="none" stroke="rgb(123, 115, 191)" stroke-width="1" d="M435.5,313.5C519,313.5,519,371.5,602.5,371.5"></path><path id="kity_path_55" fill="none" stroke="rgb(123, 115, 191)" stroke-width="1" d="M365.5,262.5C385.5,262.5,385.5,388.5,405.5,388.5"></path><path id="kity_path_57" fill="none" stroke="rgb(123, 115, 191)" stroke-width="1" d="M426.5,388.5C510,388.5,510,390.5,593.5,390.5"></path><path id="kity_path_59" fill="none" stroke="rgb(123, 115, 191)" stroke-width="1" d="M90,1045.5A187.5,191,0,0,1,277.5,854.5"></path><path id="kity_path_61" fill="none" stroke="rgb(123, 115, 191)" stroke-width="1" d="M357.5,854.5C377.5,854.5,377.5,692.5,397.5,692.5"></path><path id="kity_path_63" fill="none" stroke="rgb(123, 115, 191)" stroke-width="1" d="M418.5,692.5C438.5,692.5,438.5,482.5,458.5,482.5"></path><path id="kity_path_65" fill="none" stroke="rgb(123, 115, 191)" stroke-width="1" d="M479.5,482.5C499.5,482.5,499.5,454.5,519.5,454.5"></path><path id="kity_path_67" fill="none" stroke="rgb(123, 115, 191)" stroke-width="1" d="M479.5,482.5C499.5,482.5,499.5,510.5,519.5,510.5"></path><path id="kity_path_69" fill="none" stroke="rgb(123, 115, 191)" stroke-width="1" d="M418.5,692.5C438.5,692.5,438.5,692.5,458.5,692.5"></path><path id="kity_path_71" fill="none" stroke="rgb(123, 115, 191)" stroke-width="1" d="M479.5,692.5C499.5,692.5,499.5,566.5,519.5,566.5"></path><path id="kity_path_73" fill="none" stroke="rgb(123, 115, 191)" stroke-width="1" d="M479.5,692.5C512.5,692.5,512.5,645.5,545.5,645.5"></path><path id="kity_path_75" fill="none" stroke="rgb(123, 115, 191)" stroke-width="1" d="M566.5,645.5C852.5,645.5,852.5,617.5,1138.5,617.5"></path><path id="kity_path_77" fill="none" stroke="rgb(123, 115, 191)" stroke-width="1" d="M566.5,645.5C852.5,645.5,852.5,673.5,1138.5,673.5"></path><path id="kity_path_79" fill="none" stroke="rgb(123, 115, 191)" stroke-width="1" d="M479.5,692.5C499.5,692.5,499.5,734.5,519.5,734.5"></path><path id="kity_path_81" fill="none" stroke="rgb(123, 115, 191)" stroke-width="1" d="M479.5,692.5C499.5,692.5,499.5,818.5,519.5,818.5"></path><path id="kity_path_83" fill="none" stroke="rgb(123, 115, 191)" stroke-width="1" d="M540.5,818.5C560.5,818.5,560.5,790.5,580.5,790.5"></path><path id="kity_path_85" fill="none" stroke="rgb(123, 115, 191)" stroke-width="1" d="M540.5,818.5C560.5,818.5,560.5,846.5,580.5,846.5"></path><path id="kity_path_87" fill="none" stroke="rgb(123, 115, 191)" stroke-width="1" d="M418.5,692.5C438.5,692.5,438.5,902.5,458.5,902.5"></path><path id="kity_path_89" fill="none" stroke="rgb(123, 115, 191)" stroke-width="1" d="M479.5,902.5C499.5,902.5,499.5,902.5,519.5,902.5"></path><path id="kity_path_91" fill="none" stroke="rgb(123, 115, 191)" stroke-width="1" d="M357.5,854.5C377.5,854.5,377.5,959.5,397.5,959.5"></path><path id="kity_path_93" fill="none" stroke="rgb(123, 115, 191)" stroke-width="1" d="M357.5,854.5C377.5,854.5,377.5,1017.5,397.5,1017.5"></path><path id="kity_path_95" fill="none" stroke="rgb(123, 115, 191)" stroke-width="1" d="M90,1045.5A187.5,151,0,0,0,277.5,1196.5"></path><path id="kity_path_97" fill="none" stroke="rgb(123, 115, 191)" stroke-width="1" d="M368.5,1196.5C388.5,1196.5,388.5,1084.5,408.5,1084.5"></path><path id="kity_path_99" fill="none" stroke="rgb(123, 115, 191)" stroke-width="1" d="M368.5,1196.5C388.5,1196.5,388.5,1140.5,408.5,1140.5"></path><path id="kity_path_101" fill="none" stroke="rgb(123, 115, 191)" stroke-width="1" d="M368.5,1196.5C388.5,1196.5,388.5,1196.5,408.5,1196.5"></path><path id="kity_path_103" fill="none" stroke="rgb(123, 115, 191)" stroke-width="1" d="M368.5,1196.5C388.5,1196.5,388.5,1252.5,408.5,1252.5"></path><path id="kity_path_105" fill="none" stroke="rgb(123, 115, 191)" stroke-width="1" d="M368.5,1196.5C388.5,1196.5,388.5,1308.5,408.5,1308.5"></path><path id="kity_path_107" fill="none" stroke="rgb(123, 115, 191)" stroke-width="1" d="M429.5,1308.5C449.5,1308.5,449.5,1308.5,469.5,1308.5"></path><path id="kity_path_109" fill="none" stroke="rgb(123, 115, 191)" stroke-width="1" d="M90,1045.5A187.5,613,0,0,0,277.5,1658.5"></path><path id="kity_path_111" fill="none" stroke="rgb(123, 115, 191)" stroke-width="1" d="M368.5,1658.5C388.5,1658.5,388.5,1498.5,408.5,1498.5"></path><path id="kity_path_113" fill="none" stroke="rgb(123, 115, 191)" stroke-width="1" d="M429.5,1498.5C449.5,1498.5,449.5,1374.5,469.5,1374.5"></path><path id="kity_path_115" fill="none" stroke="rgb(123, 115, 191)" stroke-width="1" d="M429.5,1498.5C466,1498.5,466,1551.5,502.5,1551.5"></path><path id="kity_path_117" fill="none" stroke="rgb(123, 115, 191)" stroke-width="1" d="M368.5,1658.5C388.5,1658.5,388.5,1818.5,408.5,1818.5"></path><path id="kity_path_119" fill="none" stroke="rgb(123, 115, 191)" stroke-width="1" d="M429.5,1818.5C449.5,1818.5,449.5,1678.5,469.5,1678.5"></path><path id="kity_path_121" fill="none" stroke="rgb(123, 115, 191)" stroke-width="1" d="M429.5,1818.5C449.5,1818.5,449.5,1734.5,469.5,1734.5"></path><path id="kity_path_123" fill="none" stroke="rgb(123, 115, 191)" stroke-width="1" d="M429.5,1818.5C449.5,1818.5,449.5,1790.5,469.5,1790.5"></path><path id="kity_path_125" fill="none" stroke="rgb(123, 115, 191)" stroke-width="1" d="M429.5,1818.5C449.5,1818.5,449.5,1846.5,469.5,1846.5"></path><path id="kity_path_127" fill="none" stroke="rgb(123, 115, 191)" stroke-width="1" d="M429.5,1818.5C449.5,1818.5,449.5,1902.5,469.5,1902.5"></path><path id="kity_path_129" fill="none" stroke="rgb(123, 115, 191)" stroke-width="1" d="M429.5,1818.5C449.5,1818.5,449.5,1958.5,469.5,1958.5"></path><path id="kity_path_131" fill="none" stroke="rgb(123, 115, 191)" stroke-width="1" d="M90,1045.5A187.5,1009,0,0,0,277.5,2054.5"></path><path id="kity_path_133" fill="none" stroke="rgb(123, 115, 191)" stroke-width="1" d="M368.5,2054.5C388.5,2054.5,388.5,2025.5,408.5,2025.5"></path><path id="kity_path_135" fill="none" stroke="rgb(123, 115, 191)" stroke-width="1" d="M368.5,2054.5C388.5,2054.5,388.5,2083.5,408.5,2083.5"></path></g><g id="minder_node1"><path id="node_outline1" fill="rgb(123, 115, 191)" stroke="rgb(123, 115, 191)" d="M25.5,1017.5h129a5,5,0,0,1,5,5v46a5,5,0,0,1,-5,5h-129a5,5,0,0,1,-5,-5v-46a5,5,0,0,1,5,-5z" stroke-width="3"></path><g id="node_text1" fill="white"><text id="kity_text_22" text-rendering="inherit" font-size="32" dy=".8em" y="1022.4599990844727" font-family="comic sans ms" x="44.5">AJAX</text></g></g><g id="kity_g_12"><path id="kity_path_13" fill="none" stroke="none" d="M44.5,1045.5h0v0h0z"></path></g><g id="kity_g_14"><path id="kity_path_15" fill="none" stroke="none" d="M44.5,1045.5h0v0h0z"></path><path id="kity_path_16" fill="none" stroke="none"></path></g><g id="minder_node2"><g id="node_expander2" style="cursor: pointer;"><path id="kity_path_300" fill="white" stroke="gray" d="M278.5,37.5A6,6,0,1,1,266.5,37.5A6,6,0,1,1,278.5,37.5"></path><path id="kity_path_301" fill="none" stroke="gray" d="M268,37.5L277,37.5"></path></g><path id="node_outline3" fill="rgb(239, 238, 246)" stroke="rgb(123, 115, 191)" d="M282.5,19.5h199a3,3,0,0,1,3,3v30a3,3,0,0,1,-3,3h-199a3,3,0,0,1,-3,-3v-30a3,3,0,0,1,3,-3z" stroke-width="1"></path><g id="node_text3" fill="black"><text id="kity_text_139" text-rendering="inherit" font-family="comic sans ms" font-size="24" dy=".8em" y="20.220001220703125" x="299.5">AJAX基础原理</text></g></g><g id="minder_node3"><g id="node_expander1" style="cursor: pointer;" display="none"><path id="kity_path_297" fill="white" stroke="gray" d="M524.5,37.5A6,6,0,1,1,512.5,37.5A6,6,0,1,1,524.5,37.5"></path><path id="kity_path_298" fill="none" stroke="gray"></path></g><path id="node_outline2" fill="none" stroke="none" d="M529.5,24.5h11a5,5,0,0,1,5,5v16a5,5,0,0,1,-5,5h-11a5,5,0,0,1,-5,-5v-16a5,5,0,0,1,5,-5z" stroke-width="3"></path><g id="node_text2" fill="black"><text id="kity_text_137" text-rendering="inherit" font-family="comic sans ms" font-size="16" dy=".8em" y="25.979999542236328" x="534.5">异步请求服务器</text></g></g><g id="minder_node4"><g id="node_expander14" style="cursor: pointer;"><path id="kity_path_336" fill="white" stroke="gray" d="M278.5,262.5A6,6,0,1,1,266.5,262.5A6,6,0,1,1,278.5,262.5"></path><path id="kity_path_337" fill="none" stroke="gray" d="M268,262.5L277,262.5"></path></g><path id="node_outline15" fill="rgb(239, 238, 246)" stroke="rgb(123, 115, 191)" d="M282.5,244.5h80a3,3,0,0,1,3,3v30a3,3,0,0,1,-3,3h-80a3,3,0,0,1,-3,-3v-30a3,3,0,0,1,3,-3z" stroke-width="1"></path><g id="node_text15" fill="black"><text id="kity_text_163" text-rendering="inherit" font-family="comic sans ms" font-size="24" dy=".8em" y="245.22000122070312" x="299.5">load</text></g></g><g id="minder_node5"><g id="node_expander7" style="cursor: pointer;"><path id="kity_path_315" fill="white" stroke="gray" d="M405.5,136.5A6,6,0,1,1,393.5,136.5A6,6,0,1,1,405.5,136.5"></path><path id="kity_path_316" fill="none" stroke="gray" d="M395,136.5L404,136.5"></path></g><path id="node_outline8" fill="none" stroke="none" d="M410.5,123.5h11a5,5,0,0,1,5,5v16a5,5,0,0,1,-5,5h-11a5,5,0,0,1,-5,-5v-16a5,5,0,0,1,5,-5z" stroke-width="3"></path><g id="node_text8" fill="black"><text id="kity_text_149" text-rendering="inherit" font-family="comic sans ms" font-size="16" dy=".8em" y="124.97999954223633" x="415.5">作用</text></g></g><g id="minder_node6"><g id="node_expander4" style="cursor: pointer;"><path id="kity_path_306" fill="white" stroke="gray" d="M612.5,113.5A6,6,0,1,1,600.5,113.5A6,6,0,1,1,612.5,113.5"></path><path id="kity_path_307" fill="none" stroke="gray" d="M602,113.5L611,113.5"></path></g><path id="node_outline5" fill="none" stroke="none" d="M617.5,100.5h11a5,5,0,0,1,5,5v16a5,5,0,0,1,-5,5h-11a5,5,0,0,1,-5,-5v-16a5,5,0,0,1,5,-5z" stroke-width="3"></path><g id="node_text5" fill="black"><text id="kity_text_143" text-rendering="inherit" font-family="comic sans ms" font-size="16" dy=".8em" y="101.97999954223633" x="622.5">通过 AJAX 请求从服务器加载数据，并把返回的数据放置到指定的元素中</text></g></g><g id="minder_node7"><g id="node_expander3" style="cursor: pointer;" display="none"><path id="kity_path_303" fill="white" stroke="gray" d="M753.5,53.5A6,6,0,1,1,741.5,53.5A6,6,0,1,1,753.5,53.5"></path><path id="kity_path_304" fill="none" stroke="gray"></path></g><path id="node_outline4" fill="none" stroke="none" d="M758.5,40.5h11a5,5,0,0,1,5,5v16a5,5,0,0,1,-5,5h-11a5,5,0,0,1,-5,-5v-16a5,5,0,0,1,5,-5z" stroke-width="3"></path><g id="node_text4" fill="black"><text id="kity_text_141" text-rendering="inherit" font-family="comic sans ms" font-size="16" dy=".8em" y="41.97999954223633" x="763.5">加载服务器文件</text></g></g><g id="minder_node8"><g id="node_expander6" style="cursor: pointer;"><path id="kity_path_312" fill="white" stroke="gray" d="M604.5,178.5A6,6,0,1,1,592.5,178.5A6,6,0,1,1,604.5,178.5"></path><path id="kity_path_313" fill="none" stroke="gray" d="M594,178.5L603,178.5"></path></g><path id="node_outline7" fill="none" stroke="none" d="M609.5,165.5h11a5,5,0,0,1,5,5v16a5,5,0,0,1,-5,5h-11a5,5,0,0,1,-5,-5v-16a5,5,0,0,1,5,-5z" stroke-width="3"></path><g id="node_text7" fill="black"><text id="kity_text_147" text-rendering="inherit" font-family="comic sans ms" font-size="16" dy=".8em" y="166.97999954223633" x="614.5">默认使用 GET 方式</text></g></g><g id="minder_node9"><g id="node_expander5" style="cursor: pointer;" display="none"><path id="kity_path_309" fill="white" stroke="gray" d="M782.5,238.5A6,6,0,1,1,770.5,238.5A6,6,0,1,1,782.5,238.5"></path><path id="kity_path_310" fill="none" stroke="gray"></path></g><path id="node_outline6" fill="none" stroke="none" d="M787.5,225.5h11a5,5,0,0,1,5,5v16a5,5,0,0,1,-5,5h-11a5,5,0,0,1,-5,-5v-16a5,5,0,0,1,5,-5z" stroke-width="3"></path><g id="node_text6" fill="black"><text id="kity_text_145" text-rendering="inherit" font-family="comic sans ms" font-size="16" dy=".8em" y="226.97999954223633" x="792.5">[data]参数有传递数据进去，会自动转换为POST方式</text></g></g><g id="minder_node10"><g id="node_expander11" style="cursor: pointer;"><path id="kity_path_327" fill="white" stroke="gray" d="M414.5,313.5A6,6,0,1,1,402.5,313.5A6,6,0,1,1,414.5,313.5"></path><path id="kity_path_328" fill="none" stroke="gray" d="M404,313.5L413,313.5"></path></g><path id="node_outline12" fill="none" stroke="none" d="M419.5,300.5h11a5,5,0,0,1,5,5v16a5,5,0,0,1,-5,5h-11a5,5,0,0,1,-5,-5v-16a5,5,0,0,1,5,-5z" stroke-width="3"></path><g id="node_text12" fill="black"><text id="kity_text_157" text-rendering="inherit" font-family="comic sans ms" font-size="16" dy=".8em" y="301.9799995422363" x="424.5">参数</text></g></g><g id="minder_node11"><g id="node_expander8" style="cursor: pointer;" display="none"><path id="kity_path_318" fill="white" stroke="gray" d="M602.5,259.5A6,6,0,1,1,590.5,259.5A6,6,0,1,1,602.5,259.5"></path><path id="kity_path_319" fill="none" stroke="gray"></path></g><path id="node_outline9" fill="none" stroke="none" d="M607.5,246.5h11a5,5,0,0,1,5,5v16a5,5,0,0,1,-5,5h-11a5,5,0,0,1,-5,-5v-16a5,5,0,0,1,5,-5z" stroke-width="3"></path><g id="node_text9" fill="black"><text id="kity_text_151" text-rendering="inherit" font-family="comic sans ms" font-size="16" dy=".8em" y="247.97999954223633" x="612.5">url&#xa0;(String) : 请求的HTML页的URL地址</text></g></g><g id="minder_node12"><g id="node_expander9" style="cursor: pointer;" display="none"><path id="kity_path_321" fill="white" stroke="gray" d="M602.5,315.5A6,6,0,1,1,590.5,315.5A6,6,0,1,1,602.5,315.5"></path><path id="kity_path_322" fill="none" stroke="gray"></path></g><path id="node_outline10" fill="none" stroke="none" d="M607.5,302.5h11a5,5,0,0,1,5,5v16a5,5,0,0,1,-5,5h-11a5,5,0,0,1,-5,-5v-16a5,5,0,0,1,5,-5z" stroke-width="3"></path><g id="node_text10" fill="black"><text id="kity_text_153" text-rendering="inherit" font-family="comic sans ms" font-size="16" dy=".8em" y="303.9799995422363" x="612.5">data&#xa0;(Map) : (可选参数) 发送至服务器的 key/value 数据</text></g></g><g id="minder_node13"><g id="node_expander10" style="cursor: pointer;" display="none"><path id="kity_path_324" fill="white" stroke="gray" d="M602.5,371.5A6,6,0,1,1,590.5,371.5A6,6,0,1,1,602.5,371.5"></path><path id="kity_path_325" fill="none" stroke="gray"></path></g><path id="node_outline11" fill="none" stroke="none" d="M607.5,358.5h11a5,5,0,0,1,5,5v16a5,5,0,0,1,-5,5h-11a5,5,0,0,1,-5,-5v-16a5,5,0,0,1,5,-5z" stroke-width="3"></path><g id="node_text11" fill="black"><text id="kity_text_155" text-rendering="inherit" font-family="comic sans ms" font-size="16" dy=".8em" y="359.9799995422363" x="612.5">callback&#xa0;(Callback) : (可选参数) 请求完成时(不需要是success的)的回调函数</text></g></g><g id="minder_node14"><g id="node_expander13" style="cursor: pointer;"><path id="kity_path_333" fill="white" stroke="gray" d="M405.5,388.5A6,6,0,1,1,393.5,388.5A6,6,0,1,1,405.5,388.5"></path><path id="kity_path_334" fill="none" stroke="gray" d="M395,388.5L404,388.5"></path></g><path id="node_outline14" fill="none" stroke="none" d="M410.5,375.5h11a5,5,0,0,1,5,5v16a5,5,0,0,1,-5,5h-11a5,5,0,0,1,-5,-5v-16a5,5,0,0,1,5,-5z" stroke-width="3"></path><g id="node_text14" fill="black"><text id="kity_text_161" text-rendering="inherit" font-family="comic sans ms" font-size="16" dy=".8em" y="376.9799995422363" x="415.5">通用格式</text></g></g><g id="minder_node15"><g id="node_expander12" style="cursor: pointer;" display="none"><path id="kity_path_330" fill="white" stroke="gray" d="M593.5,390.5A6,6,0,1,1,581.5,390.5A6,6,0,1,1,593.5,390.5"></path><path id="kity_path_331" fill="none" stroke="gray"></path></g><path id="node_outline13" fill="none" stroke="none" d="M598.5,377.5h11a5,5,0,0,1,5,5v16a5,5,0,0,1,-5,5h-11a5,5,0,0,1,-5,-5v-16a5,5,0,0,1,5,-5z" stroke-width="3"></path><g id="node_text13" fill="black"><text id="kity_text_159" text-rendering="inherit" font-family="comic sans ms" font-size="16" dy=".8em" y="378.9799995422363" x="603.5">$("#links").load("http://www.ex.com");</text></g></g><g id="minder_node16"><g id="node_expander32" style="cursor: pointer;"><path id="kity_path_390" fill="white" stroke="gray" d="M278.5,854.5A6,6,0,1,1,266.5,854.5A6,6,0,1,1,278.5,854.5"></path><path id="kity_path_391" fill="none" stroke="gray" d="M268,854.5L277,854.5"></path></g><path id="node_outline33" fill="rgb(239, 238, 246)" stroke="rgb(123, 115, 191)" d="M282.5,836.5h72a3,3,0,0,1,3,3v30a3,3,0,0,1,-3,3h-72a3,3,0,0,1,-3,-3v-30a3,3,0,0,1,3,-3z" stroke-width="1"></path><g id="node_text33" fill="black"><text id="kity_text_199" text-rendering="inherit" font-family="comic sans ms" font-size="24" dy=".8em" y="837.2200012207031" x="299.5">get</text></g></g><g id="minder_node17"><g id="node_expander29" style="cursor: pointer;"><path id="kity_path_381" fill="white" stroke="gray" d="M397.5,692.5A6,6,0,1,1,385.5,692.5A6,6,0,1,1,397.5,692.5"></path><path id="kity_path_382" fill="none" stroke="gray" d="M387,692.5L396,692.5"></path></g><path id="node_outline30" fill="none" stroke="none" d="M402.5,678.5h11a5,5,0,0,1,5,5v18a5,5,0,0,1,-5,5h-11a5,5,0,0,1,-5,-5v-18a5,5,0,0,1,5,-5z" stroke-width="3"></path><g id="node_text30" fill="black"><text id="kity_text_193" text-rendering="inherit" font-family="comic sans ms" font-size="18" dy=".8em" y="679.5400009155273" x="407.5">get</text></g></g><g id="minder_node18"><g id="node_expander17" style="cursor: pointer;"><path id="kity_path_345" fill="white" stroke="gray" d="M458.5,482.5A6,6,0,1,1,446.5,482.5A6,6,0,1,1,458.5,482.5"></path><path id="kity_path_346" fill="none" stroke="gray" d="M448,482.5L457,482.5"></path></g><path id="node_outline18" fill="none" stroke="none" d="M463.5,469.5h11a5,5,0,0,1,5,5v16a5,5,0,0,1,-5,5h-11a5,5,0,0,1,-5,-5v-16a5,5,0,0,1,5,-5z" stroke-width="3"></path><g id="node_text18" fill="black"><text id="kity_text_169" text-rendering="inherit" font-family="comic sans ms" font-size="16" dy=".8em" y="470.9799995422363" x="468.5">作用</text></g></g><g id="minder_node19"><g id="node_expander15" style="cursor: pointer;" display="none"><path id="kity_path_339" fill="white" stroke="gray" d="M519.5,454.5A6,6,0,1,1,507.5,454.5A6,6,0,1,1,519.5,454.5"></path><path id="kity_path_340" fill="none" stroke="gray"></path></g><path id="node_outline16" fill="none" stroke="none" d="M524.5,441.5h11a5,5,0,0,1,5,5v16a5,5,0,0,1,-5,5h-11a5,5,0,0,1,-5,-5v-16a5,5,0,0,1,5,-5z" stroke-width="3"></path><g id="node_text16" fill="black"><text id="kity_text_165" text-rendering="inherit" font-family="comic sans ms" font-size="16" dy=".8em" y="442.9799995422363" x="529.5">通过get请求载入信息</text></g></g><g id="minder_node20"><g id="node_expander16" style="cursor: pointer;" display="none"><path id="kity_path_342" fill="white" stroke="gray" d="M519.5,510.5A6,6,0,1,1,507.5,510.5A6,6,0,1,1,519.5,510.5"></path><path id="kity_path_343" fill="none" stroke="gray"></path></g><path id="node_outline17" fill="none" stroke="none" d="M524.5,497.5h11a5,5,0,0,1,5,5v16a5,5,0,0,1,-5,5h-11a5,5,0,0,1,-5,-5v-16a5,5,0,0,1,5,-5z" stroke-width="3"></path><g id="node_text17" fill="black"><text id="kity_text_167" text-rendering="inherit" font-family="comic sans ms" font-size="16" dy=".8em" y="498.9799995422363" x="529.5">发送数据给服务器</text></g></g><g id="minder_node21"><g id="node_expander26" style="cursor: pointer;"><path id="kity_path_372" fill="white" stroke="gray" d="M458.5,692.5A6,6,0,1,1,446.5,692.5A6,6,0,1,1,458.5,692.5"></path><path id="kity_path_373" fill="none" stroke="gray" d="M448,692.5L457,692.5"></path></g><path id="node_outline27" fill="none" stroke="none" d="M463.5,679.5h11a5,5,0,0,1,5,5v16a5,5,0,0,1,-5,5h-11a5,5,0,0,1,-5,-5v-16a5,5,0,0,1,5,-5z" stroke-width="3"></path><g id="node_text27" fill="black"><text id="kity_text_187" text-rendering="inherit" font-family="comic sans ms" font-size="16" dy=".8em" y="680.9799995422363" x="468.5">参数</text></g></g><g id="minder_node22"><g id="node_expander18" style="cursor: pointer;" display="none"><path id="kity_path_348" fill="white" stroke="gray" d="M519.5,566.5A6,6,0,1,1,507.5,566.5A6,6,0,1,1,519.5,566.5"></path><path id="kity_path_349" fill="none" stroke="gray"></path></g><path id="node_outline19" fill="none" stroke="none" d="M524.5,553.5h11a5,5,0,0,1,5,5v16a5,5,0,0,1,-5,5h-11a5,5,0,0,1,-5,-5v-16a5,5,0,0,1,5,-5z" stroke-width="3"></path><g id="node_text19" fill="black"><text id="kity_text_171" text-rendering="inherit" font-family="comic sans ms" font-size="16" dy=".8em" y="554.9799995422363" x="529.5">url&#xa0;(String) : 发送请求的URL地址</text></g></g><g id="minder_node23"><g id="node_expander21" style="cursor: pointer;"><path id="kity_path_357" fill="white" stroke="gray" d="M545.5,645.5A6,6,0,1,1,533.5,645.5A6,6,0,1,1,545.5,645.5"></path><path id="kity_path_358" fill="none" stroke="gray" d="M535,645.5L544,645.5"></path></g><path id="node_outline22" fill="none" stroke="none" d="M550.5,632.5h11a5,5,0,0,1,5,5v16a5,5,0,0,1,-5,5h-11a5,5,0,0,1,-5,-5v-16a5,5,0,0,1,5,-5z" stroke-width="3"></path><g id="node_text22" fill="black"><text id="kity_text_177" text-rendering="inherit" font-family="comic sans ms" font-size="16" dy=".8em" y="633.9799995422363" x="555.5">data&#xa0;(Map) : (可选) 要发送给服务器的数据，以 Key/value 的键值对形式表示</text></g></g><g id="minder_node24"><g id="node_expander19" style="cursor: pointer;" display="none"><path id="kity_path_351" fill="white" stroke="gray" d="M1138.5,617.5A6,6,0,1,1,1126.5,617.5A6,6,0,1,1,1138.5,617.5"></path><path id="kity_path_352" fill="none" stroke="gray"></path></g><path id="node_outline20" fill="none" stroke="none" d="M1143.5,604.5h11a5,5,0,0,1,5,5v16a5,5,0,0,1,-5,5h-11a5,5,0,0,1,-5,-5v-16a5,5,0,0,1,5,-5z" stroke-width="3"></path><g id="node_text20" fill="black"><text id="kity_text_173" text-rendering="inherit" font-family="comic sans ms" font-size="16" dy=".8em" y="605.9799995422363" x="1148.5">地址栏：ex.jsp?username=Hungking&amp;pwd=123456</text></g></g><g id="minder_node25"><g id="node_expander20" style="cursor: pointer;" display="none"><path id="kity_path_354" fill="white" stroke="gray" d="M1138.5,673.5A6,6,0,1,1,1126.5,673.5A6,6,0,1,1,1138.5,673.5"></path><path id="kity_path_355" fill="none" stroke="gray"></path></g><path id="node_outline21" fill="none" stroke="none" d="M1143.5,660.5h11a5,5,0,0,1,5,5v16a5,5,0,0,1,-5,5h-11a5,5,0,0,1,-5,-5v-16a5,5,0,0,1,5,-5z" stroke-width="3"></path><g id="node_text21" fill="black"><text id="kity_text_175" text-rendering="inherit" font-family="comic sans ms" font-size="16" dy=".8em" y="661.9799995422363" x="1148.5">{key1:value1,key2:value2}</text></g></g><g id="minder_node26"><g id="node_expander22" style="cursor: pointer;" display="none"><path id="kity_path_360" fill="white" stroke="gray" d="M519.5,734.5A6,6,0,1,1,507.5,734.5A6,6,0,1,1,519.5,734.5"></path><path id="kity_path_361" fill="none" stroke="gray"></path></g><path id="node_outline23" fill="none" stroke="none" d="M524.5,721.5h11a5,5,0,0,1,5,5v16a5,5,0,0,1,-5,5h-11a5,5,0,0,1,-5,-5v-16a5,5,0,0,1,5,-5z" stroke-width="3"></path><g id="node_text23" fill="black"><text id="kity_text_179" text-rendering="inherit" font-family="comic sans ms" font-size="16" dy=".8em" y="722.9799995422363" x="529.5">callback&#xa0;(Function) : (可选) 载入成功时回调函数(只有当Response的返回状态是success才是调用该方法)</text></g></g><g id="minder_node27"><g id="node_expander25" style="cursor: pointer;"><path id="kity_path_369" fill="white" stroke="gray" d="M519.5,818.5A6,6,0,1,1,507.5,818.5A6,6,0,1,1,519.5,818.5"></path><path id="kity_path_370" fill="none" stroke="gray" d="M509,818.5L518,818.5"></path></g><path id="node_outline26" fill="none" stroke="none" d="M524.5,805.5h11a5,5,0,0,1,5,5v16a5,5,0,0,1,-5,5h-11a5,5,0,0,1,-5,-5v-16a5,5,0,0,1,5,-5z" stroke-width="3"></path><g id="node_text26" fill="black"><text id="kity_text_185" text-rendering="inherit" font-family="comic sans ms" font-size="16" dy=".8em" y="806.9799995422363" x="529.5">type</text></g></g><g id="minder_node28"><g id="node_expander23" style="cursor: pointer;" display="none"><path id="kity_path_363" fill="white" stroke="gray" d="M580.5,790.5A6,6,0,1,1,568.5,790.5A6,6,0,1,1,580.5,790.5"></path><path id="kity_path_364" fill="none" stroke="gray"></path></g><path id="node_outline24" fill="none" stroke="none" d="M585.5,777.5h11a5,5,0,0,1,5,5v16a5,5,0,0,1,-5,5h-11a5,5,0,0,1,-5,-5v-16a5,5,0,0,1,5,-5z" stroke-width="3"></path><g id="node_text24" fill="black"><text id="kity_text_181" text-rendering="inherit" font-family="comic sans ms" font-size="16" dy=".8em" y="778.9799995422363" x="590.5">xml,html,json,text...</text></g></g><g id="minder_node29"><g id="node_expander24" style="cursor: pointer;" display="none"><path id="kity_path_366" fill="white" stroke="gray" d="M580.5,846.5A6,6,0,1,1,568.5,846.5A6,6,0,1,1,580.5,846.5"></path><path id="kity_path_367" fill="none" stroke="gray"></path></g><path id="node_outline25" fill="none" stroke="none" d="M585.5,833.5h11a5,5,0,0,1,5,5v16a5,5,0,0,1,-5,5h-11a5,5,0,0,1,-5,-5v-16a5,5,0,0,1,5,-5z" stroke-width="3"></path><g id="node_text25" fill="black"><text id="kity_text_183" text-rendering="inherit" font-family="comic sans ms" font-size="16" dy=".8em" y="834.9799995422363" x="590.5">跨域：jsonp</text></g></g><g id="minder_node30"><g id="node_expander28" style="cursor: pointer;"><path id="kity_path_378" fill="white" stroke="gray" d="M458.5,902.5A6,6,0,1,1,446.5,902.5A6,6,0,1,1,458.5,902.5"></path><path id="kity_path_379" fill="none" stroke="gray" d="M448,902.5L457,902.5"></path></g><path id="node_outline29" fill="none" stroke="none" d="M463.5,889.5h11a5,5,0,0,1,5,5v16a5,5,0,0,1,-5,5h-11a5,5,0,0,1,-5,-5v-16a5,5,0,0,1,5,-5z" stroke-width="3"></path><g id="node_text29" fill="black"><text id="kity_text_191" text-rendering="inherit" font-family="comic sans ms" font-size="16" dy=".8em" y="890.9799995422363" x="468.5">通用格式</text></g></g><g id="minder_node31"><g id="node_expander27" style="cursor: pointer;" display="none"><path id="kity_path_375" fill="white" stroke="gray" d="M519.5,902.5A6,6,0,1,1,507.5,902.5A6,6,0,1,1,519.5,902.5"></path><path id="kity_path_376" fill="none" stroke="gray"></path></g><path id="node_outline28" fill="none" stroke="none" d="M524.5,889.5h11a5,5,0,0,1,5,5v16a5,5,0,0,1,-5,5h-11a5,5,0,0,1,-5,-5v-16a5,5,0,0,1,5,-5z" stroke-width="3"></path><g id="node_text28" fill="black"><text id="kity_text_189" text-rendering="inherit" font-family="comic sans ms" font-size="16" dy=".8em" y="890.9799995422363" x="529.5">$.get("ex.php",{name:Hungking,pwd:123456});</text></g></g><g id="minder_node32"><g id="node_expander30" style="cursor: pointer;" display="none"><path id="kity_path_384" fill="white" stroke="gray" d="M397.5,959.5A6,6,0,1,1,385.5,959.5A6,6,0,1,1,397.5,959.5"></path><path id="kity_path_385" fill="none" stroke="gray"></path></g><path id="node_outline31" fill="none" stroke="none" d="M402.5,945.5h11a5,5,0,0,1,5,5v18a5,5,0,0,1,-5,5h-11a5,5,0,0,1,-5,-5v-18a5,5,0,0,1,5,-5z" stroke-width="3"></path><g id="node_text31" fill="black"><text id="kity_text_195" text-rendering="inherit" font-family="comic sans ms" font-size="18" dy=".8em" y="946.5400009155273" x="407.5">getJSON</text></g></g><g id="minder_node33"><g id="node_expander31" style="cursor: pointer;" display="none"><path id="kity_path_387" fill="white" stroke="gray" d="M397.5,1017.5A6,6,0,1,1,385.5,1017.5A6,6,0,1,1,397.5,1017.5"></path><path id="kity_path_388" fill="none" stroke="gray"></path></g><path id="node_outline32" fill="none" stroke="none" d="M402.5,1003.5h11a5,5,0,0,1,5,5v18a5,5,0,0,1,-5,5h-11a5,5,0,0,1,-5,-5v-18a5,5,0,0,1,5,-5z" stroke-width="3"></path><g id="node_text32" fill="black"><text id="kity_text_197" text-rendering="inherit" font-family="comic sans ms" font-size="18" dy=".8em" y="1004.5400009155273" x="407.5">getScript</text></g></g><g id="minder_node34"><g id="node_expander39" style="cursor: pointer;"><path id="kity_path_411" fill="white" stroke="gray" d="M278.5,1196.5A6,6,0,1,1,266.5,1196.5A6,6,0,1,1,278.5,1196.5"></path><path id="kity_path_412" fill="none" stroke="gray" d="M268,1196.5L277,1196.5"></path></g><path id="node_outline40" fill="rgb(239, 238, 246)" stroke="rgb(123, 115, 191)" d="M282.5,1178.5h83a3,3,0,0,1,3,3v30a3,3,0,0,1,-3,3h-83a3,3,0,0,1,-3,-3v-30a3,3,0,0,1,3,-3z" stroke-width="1"></path><g id="node_text40" fill="black"><text id="kity_text_213" text-rendering="inherit" font-family="comic sans ms" font-size="24" dy=".8em" y="1179.2200012207031" x="299.5">post</text></g></g><g id="minder_node35"><g id="node_expander33" style="cursor: pointer;" display="none"><path id="kity_path_393" fill="white" stroke="gray" d="M408.5,1084.5A6,6,0,1,1,396.5,1084.5A6,6,0,1,1,408.5,1084.5"></path><path id="kity_path_394" fill="none" stroke="gray"></path></g><path id="node_outline34" fill="none" stroke="none" d="M413.5,1071.5h11a5,5,0,0,1,5,5v16a5,5,0,0,1,-5,5h-11a5,5,0,0,1,-5,-5v-16a5,5,0,0,1,5,-5z" stroke-width="3"></path><g id="node_text34" fill="black"><text id="kity_text_201" text-rendering="inherit" font-family="comic sans ms" font-size="16" dy=".8em" y="1072.9799995422363" x="418.5">url:发送请求地址</text></g></g><g id="minder_node36"><g id="node_expander34" style="cursor: pointer;" display="none"><path id="kity_path_396" fill="white" stroke="gray" d="M408.5,1140.5A6,6,0,1,1,396.5,1140.5A6,6,0,1,1,408.5,1140.5"></path><path id="kity_path_397" fill="none" stroke="gray"></path></g><path id="node_outline35" fill="none" stroke="none" d="M413.5,1127.5h11a5,5,0,0,1,5,5v16a5,5,0,0,1,-5,5h-11a5,5,0,0,1,-5,-5v-16a5,5,0,0,1,5,-5z" stroke-width="3"></path><g id="node_text35" fill="black"><text id="kity_text_203" text-rendering="inherit" font-family="comic sans ms" font-size="16" dy=".8em" y="1128.9799995422363" x="418.5">data:待发送 Key/value 参数</text></g></g><g id="minder_node37"><g id="node_expander35" style="cursor: pointer;" display="none"><path id="kity_path_399" fill="white" stroke="gray" d="M408.5,1196.5A6,6,0,1,1,396.5,1196.5A6,6,0,1,1,408.5,1196.5"></path><path id="kity_path_400" fill="none" stroke="gray"></path></g><path id="node_outline36" fill="none" stroke="none" d="M413.5,1183.5h11a5,5,0,0,1,5,5v16a5,5,0,0,1,-5,5h-11a5,5,0,0,1,-5,-5v-16a5,5,0,0,1,5,-5z" stroke-width="3"></path><g id="node_text36" fill="black"><text id="kity_text_205" text-rendering="inherit" font-family="comic sans ms" font-size="16" dy=".8em" y="1184.9799995422363" x="418.5">callback:发送成功时回调函数</text></g></g><g id="minder_node38"><g id="node_expander36" style="cursor: pointer;" display="none"><path id="kity_path_402" fill="white" stroke="gray" d="M408.5,1252.5A6,6,0,1,1,396.5,1252.5A6,6,0,1,1,408.5,1252.5"></path><path id="kity_path_403" fill="none" stroke="gray"></path></g><path id="node_outline37" fill="none" stroke="none" d="M413.5,1239.5h11a5,5,0,0,1,5,5v16a5,5,0,0,1,-5,5h-11a5,5,0,0,1,-5,-5v-16a5,5,0,0,1,5,-5z" stroke-width="3"></path><g id="node_text37" fill="black"><text id="kity_text_207" text-rendering="inherit" font-family="comic sans ms" font-size="16" dy=".8em" y="1240.9799995422363" x="418.5">ype:返回内容格式，xml, html, script, json, text, _default</text></g></g><g id="minder_node39"><g id="node_expander38" style="cursor: pointer;"><path id="kity_path_408" fill="white" stroke="gray" d="M408.5,1308.5A6,6,0,1,1,396.5,1308.5A6,6,0,1,1,408.5,1308.5"></path><path id="kity_path_409" fill="none" stroke="gray" d="M398,1308.5L407,1308.5"></path></g><path id="node_outline39" fill="none" stroke="none" d="M413.5,1295.5h11a5,5,0,0,1,5,5v16a5,5,0,0,1,-5,5h-11a5,5,0,0,1,-5,-5v-16a5,5,0,0,1,5,-5z" stroke-width="3"></path><g id="node_text39" fill="black"><text id="kity_text_211" text-rendering="inherit" font-family="comic sans ms" font-size="16" dy=".8em" y="1296.9799995422363" x="418.5">通用格式</text></g></g><g id="minder_node40"><g id="node_expander37" style="cursor: pointer;" display="none"><path id="kity_path_405" fill="white" stroke="gray" d="M469.5,1308.5A6,6,0,1,1,457.5,1308.5A6,6,0,1,1,469.5,1308.5"></path><path id="kity_path_406" fill="none" stroke="gray"></path></g><path id="node_outline38" fill="none" stroke="none" d="M474.5,1295.5h11a5,5,0,0,1,5,5v16a5,5,0,0,1,-5,5h-11a5,5,0,0,1,-5,-5v-16a5,5,0,0,1,5,-5z" stroke-width="3"></path><g id="node_text38" fill="black"><text id="kity_text_209" text-rendering="inherit" font-family="comic sans ms" font-size="16" dy=".8em" y="1296.9799995422363" x="479.5">$.post("ex.asp", { "txt": "123" },function(data){}</text></g></g><g id="minder_node41"><g id="node_expander50" style="cursor: pointer;"><path id="kity_path_444" fill="white" stroke="gray" d="M278.5,1658.5A6,6,0,1,1,266.5,1658.5A6,6,0,1,1,278.5,1658.5"></path><path id="kity_path_445" fill="none" stroke="gray" d="M268,1658.5L277,1658.5"></path></g><path id="node_outline51" fill="rgb(239, 238, 246)" stroke="rgb(123, 115, 191)" d="M282.5,1640.5h83a3,3,0,0,1,3,3v30a3,3,0,0,1,-3,3h-83a3,3,0,0,1,-3,-3v-30a3,3,0,0,1,3,-3z" stroke-width="1"></path><g id="node_text51" fill="black"><text id="kity_text_235" text-rendering="inherit" font-family="comic sans ms" font-size="24" dy=".8em" y="1641.2200012207031" x="299.5">ajax</text></g></g><g id="minder_node42"><g id="node_expander42" style="cursor: pointer;"><path id="kity_path_420" fill="white" stroke="gray" d="M408.5,1498.5A6,6,0,1,1,396.5,1498.5A6,6,0,1,1,408.5,1498.5"></path><path id="kity_path_421" fill="none" stroke="gray" d="M398,1498.5L407,1498.5"></path></g><path id="node_outline43" fill="none" stroke="none" d="M413.5,1484.5h11a5,5,0,0,1,5,5v18a5,5,0,0,1,-5,5h-11a5,5,0,0,1,-5,-5v-18a5,5,0,0,1,5,-5z" stroke-width="3"></path><g id="node_text43" fill="black"><text id="kity_text_219" text-rendering="inherit" font-family="comic sans ms" font-size="18" dy=".8em" y="1485.5400009155273" x="418.5">ajax</text></g></g><g id="minder_node43"><g id="node_expander40" style="cursor: pointer;" display="none"><path id="kity_path_414" fill="white" stroke="gray" d="M469.5,1374.5A6,6,0,1,1,457.5,1374.5A6,6,0,1,1,469.5,1374.5"></path><path id="kity_path_415" fill="none" stroke="gray"></path></g><path id="node_outline41" fill="none" stroke="none" d="M474.5,1361.5h11a5,5,0,0,1,5,5v16a5,5,0,0,1,-5,5h-11a5,5,0,0,1,-5,-5v-16a5,5,0,0,1,5,-5z" stroke-width="3"></path><g id="node_text41" fill="black"><text id="kity_text_215" text-rendering="inherit" font-family="comic sans ms" font-size="16" dy=".8em" y="1362.9799995422363" x="479.5">在不重新加载整个页面的情况下，与服务器交换数据并更新部分网页</text></g></g><g id="minder_node44"><g id="node_expander41" style="cursor: pointer;" display="none"><path id="kity_path_417" fill="white" stroke="gray" d="M502.5,1551.5A6,6,0,1,1,490.5,1551.5A6,6,0,1,1,502.5,1551.5"></path><path id="kity_path_418" fill="none" stroke="gray"></path></g><path id="node_outline42" fill="none" stroke="none" d="M507.5,1442.5h210a5,5,0,0,1,5,5v208a5,5,0,0,1,-5,5h-210a5,5,0,0,1,-5,-5v-208a5,5,0,0,1,5,-5z" stroke-width="3"></path><g id="node_text42" fill="black"><text id="kity_text_217" text-rendering="inherit" font-size="12" dy=".8em" y="1641.5800018310547" x="611.5"> </text></g><image id="kity_image_242" xlink:href="http://image18.poco.cn/mypoco/myphoto/20160815/00/1789807562016081500382709.png" x="512.5" y="1447.5" width="200" height="191" xlink:title="AJAX格式"></image></g><g id="minder_node45"><g id="node_expander49" style="cursor: pointer;"><path id="kity_path_441" fill="white" stroke="gray" d="M408.5,1818.5A6,6,0,1,1,396.5,1818.5A6,6,0,1,1,408.5,1818.5"></path><path id="kity_path_442" fill="none" stroke="gray" d="M398,1818.5L407,1818.5"></path></g><path id="node_outline50" fill="none" stroke="none" d="M413.5,1804.5h11a5,5,0,0,1,5,5v18a5,5,0,0,1,-5,5h-11a5,5,0,0,1,-5,-5v-18a5,5,0,0,1,5,-5z" stroke-width="3"></path><g id="node_text50" fill="black"><text id="kity_text_233" text-rendering="inherit" font-family="comic sans ms" font-size="18" dy=".8em" y="1805.5400009155273" x="418.5">过程</text></g></g><g id="minder_node46"><g id="node_expander43" style="cursor: pointer;" display="none"><path id="kity_path_423" fill="white" stroke="gray" d="M469.5,1678.5A6,6,0,1,1,457.5,1678.5A6,6,0,1,1,469.5,1678.5"></path><path id="kity_path_424" fill="none" stroke="gray"></path></g><path id="node_outline44" fill="none" stroke="none" d="M474.5,1665.5h11a5,5,0,0,1,5,5v16a5,5,0,0,1,-5,5h-11a5,5,0,0,1,-5,-5v-16a5,5,0,0,1,5,-5z" stroke-width="3"></path><g id="node_text44" fill="black"><text id="kity_text_221" text-rendering="inherit" font-family="comic sans ms" font-size="16" dy=".8em" y="1666.9799995422363" x="479.5">ajaxComplete</text></g></g><g id="minder_node47"><g id="node_expander44" style="cursor: pointer;" display="none"><path id="kity_path_426" fill="white" stroke="gray" d="M469.5,1734.5A6,6,0,1,1,457.5,1734.5A6,6,0,1,1,469.5,1734.5"></path><path id="kity_path_427" fill="none" stroke="gray"></path></g><path id="node_outline45" fill="none" stroke="none" d="M474.5,1721.5h11a5,5,0,0,1,5,5v16a5,5,0,0,1,-5,5h-11a5,5,0,0,1,-5,-5v-16a5,5,0,0,1,5,-5z" stroke-width="3"></path><g id="node_text45" fill="black"><text id="kity_text_223" text-rendering="inherit" font-family="comic sans ms" font-size="16" dy=".8em" y="1722.9799995422363" x="479.5">ajaxError</text></g></g><g id="minder_node48"><g id="node_expander45" style="cursor: pointer;" display="none"><path id="kity_path_429" fill="white" stroke="gray" d="M469.5,1790.5A6,6,0,1,1,457.5,1790.5A6,6,0,1,1,469.5,1790.5"></path><path id="kity_path_430" fill="none" stroke="gray"></path></g><path id="node_outline46" fill="none" stroke="none" d="M474.5,1777.5h11a5,5,0,0,1,5,5v16a5,5,0,0,1,-5,5h-11a5,5,0,0,1,-5,-5v-16a5,5,0,0,1,5,-5z" stroke-width="3"></path><g id="node_text46" fill="black"><text id="kity_text_225" text-rendering="inherit" font-family="comic sans ms" font-size="16" dy=".8em" y="1778.9799995422363" x="479.5">ajaxSend</text></g></g><g id="minder_node49"><g id="node_expander46" style="cursor: pointer;" display="none"><path id="kity_path_432" fill="white" stroke="gray" d="M469.5,1846.5A6,6,0,1,1,457.5,1846.5A6,6,0,1,1,469.5,1846.5"></path><path id="kity_path_433" fill="none" stroke="gray"></path></g><path id="node_outline47" fill="none" stroke="none" d="M474.5,1833.5h11a5,5,0,0,1,5,5v16a5,5,0,0,1,-5,5h-11a5,5,0,0,1,-5,-5v-16a5,5,0,0,1,5,-5z" stroke-width="3"></path><g id="node_text47" fill="black"><text id="kity_text_227" text-rendering="inherit" font-family="comic sans ms" font-size="16" dy=".8em" y="1834.9799995422363" x="479.5">ajaxStart</text></g></g><g id="minder_node50"><g id="node_expander47" style="cursor: pointer;" display="none"><path id="kity_path_435" fill="white" stroke="gray" d="M469.5,1902.5A6,6,0,1,1,457.5,1902.5A6,6,0,1,1,469.5,1902.5"></path><path id="kity_path_436" fill="none" stroke="gray"></path></g><path id="node_outline48" fill="none" stroke="none" d="M474.5,1889.5h11a5,5,0,0,1,5,5v16a5,5,0,0,1,-5,5h-11a5,5,0,0,1,-5,-5v-16a5,5,0,0,1,5,-5z" stroke-width="3"></path><g id="node_text48" fill="black"><text id="kity_text_229" text-rendering="inherit" font-family="comic sans ms" font-size="16" dy=".8em" y="1890.9799995422363" x="479.5">ajaxStop</text></g></g><g id="minder_node51"><g id="node_expander48" style="cursor: pointer;" display="none"><path id="kity_path_438" fill="white" stroke="gray" d="M469.5,1958.5A6,6,0,1,1,457.5,1958.5A6,6,0,1,1,469.5,1958.5"></path><path id="kity_path_439" fill="none" stroke="gray"></path></g><path id="node_outline49" fill="none" stroke="none" d="M474.5,1945.5h11a5,5,0,0,1,5,5v16a5,5,0,0,1,-5,5h-11a5,5,0,0,1,-5,-5v-16a5,5,0,0,1,5,-5z" stroke-width="3"></path><g id="node_text49" fill="black"><text id="kity_text_231" text-rendering="inherit" font-family="comic sans ms" font-size="16" dy=".8em" y="1946.9799995422363" x="479.5">ajaxSuccess</text></g></g><g id="minder_node52"><g id="node_expander53" style="cursor: pointer;"><path id="kity_path_453" fill="white" stroke="gray" d="M278.5,2054.5A6,6,0,1,1,266.5,2054.5A6,6,0,1,1,278.5,2054.5"></path><path id="kity_path_454" fill="none" stroke="gray" d="M268,2054.5L277,2054.5"></path></g><path id="node_outline54" fill="rgb(239, 238, 246)" stroke="rgb(123, 115, 191)" d="M282.5,2036.5h83a3,3,0,0,1,3,3v30a3,3,0,0,1,-3,3h-83a3,3,0,0,1,-3,-3v-30a3,3,0,0,1,3,-3z" stroke-width="1"></path><g id="node_text54" fill="black"><text id="kity_text_241" text-rendering="inherit" font-family="comic sans ms" font-size="24" dy=".8em" y="2037.2200012207031" x="299.5">其他</text></g></g><g id="minder_node53"><g id="node_expander51" style="cursor: pointer;" display="none"><path id="kity_path_447" fill="white" stroke="gray" d="M408.5,2025.5A6,6,0,1,1,396.5,2025.5A6,6,0,1,1,408.5,2025.5"></path><path id="kity_path_448" fill="none" stroke="gray"></path></g><path id="node_outline52" fill="none" stroke="none" d="M413.5,2011.5h11a5,5,0,0,1,5,5v18a5,5,0,0,1,-5,5h-11a5,5,0,0,1,-5,-5v-18a5,5,0,0,1,5,-5z" stroke-width="3"></path><g id="node_text52" fill="black"><text id="kity_text_237" text-rendering="inherit" font-family="comic sans ms" font-size="18" dy=".8em" y="2012.5400009155273" x="418.5">serialize</text></g></g><g id="minder_node54"><g id="node_expander52" style="cursor: pointer;" display="none"><path id="kity_path_450" fill="white" stroke="gray" d="M408.5,2083.5A6,6,0,1,1,396.5,2083.5A6,6,0,1,1,408.5,2083.5"></path><path id="kity_path_451" fill="none" stroke="gray"></path></g><path id="node_outline53" fill="none" stroke="none" d="M413.5,2069.5h11a5,5,0,0,1,5,5v18a5,5,0,0,1,-5,5h-11a5,5,0,0,1,-5,-5v-18a5,5,0,0,1,5,-5z" stroke-width="3"></path><g id="node_text53" fill="black"><text id="kity_text_239" text-rendering="inherit" font-family="comic sans ms" font-size="18" dy=".8em" y="2070.5400009155273" x="418.5">serializeArray</text></g></g></g></g></svg>