<svg id="kity_svg_6" xmlns="http://www.w3.org/2000/svg" xmlns:xlink="http://www.w3.org/1999/xlink" version="1.1" width="647" height="474" style="background: rgb(251, 251, 251) none repeat scroll 0% 0%; visibility: visible;" viewBox="0 0 647 474"><defs id="kity_defs_7"><linearGradient id="kity_linearGradient_17" x1="0" y1="0" x2="0" y2="1"><stop id="kity_stop_18" offset="0" stop-color="rgb(255, 255, 255)"></stop><stop id="kity_stop_19" offset="1" stop-color="rgb(204, 204, 204)"></stop></linearGradient><marker id="kity_marker_2" orient="auto" refX="6" refY="0" viewBox="-7 -7 14 14" markerWidth="7" markerHeight="7" markerUnits="userSpaceOnUse"><path id="kity_path_3" fill="rgb(115, 191, 118)" stroke="none" d="M6,0A6,6,0,1,1,-6,0A6,6,0,1,1,6,0"></path></marker></defs><g id="kity_g_8"><g id="minder1" text-rendering="optimize-speed"><g id="minder_connect_group1"><path id="kity_path_31" fill="none" stroke="rgb(115, 191, 118)" stroke-width="1" d="M106.5,230.5A192,169,0,0,1,298.5,61.5"></path><path id="kity_path_33" fill="none" stroke="rgb(115, 191, 118)" stroke-width="1" d="M437.5,61.5C496,61.5,496,32.5,554.5,32.5"></path><path id="kity_path_35" fill="none" stroke="rgb(115, 191, 118)" stroke-width="1" d="M437.5,61.5C496,61.5,496,64.5,554.5,64.5"></path><path id="kity_path_37" fill="none" stroke="rgb(115, 191, 118)" stroke-width="1" d="M437.5,61.5C496,61.5,496,96.5,554.5,96.5"></path><path id="kity_path_39" fill="none" stroke="rgb(115, 191, 118)" stroke-width="1" d="M106.5,230.5A192,65,0,0,1,298.5,165.5"></path><path id="kity_path_41" fill="none" stroke="rgb(115, 191, 118)" stroke-width="1" d="M389.5,165.5C454.5,165.5,454.5,130.5,519.5,130.5"></path><path id="kity_path_43" fill="none" stroke="rgb(115, 191, 118)" stroke-width="1" d="M389.5,165.5C454.5,165.5,454.5,162.5,519.5,162.5"></path><path id="kity_path_45" fill="none" stroke="rgb(115, 191, 118)" stroke-width="1" d="M389.5,165.5C454.5,165.5,454.5,194.5,519.5,194.5"></path><path id="kity_path_47" fill="none" stroke="rgb(115, 191, 118)" stroke-width="1" d="M106.5,230.5A192,55,0,0,0,298.5,285.5"></path><path id="kity_path_49" fill="none" stroke="rgb(115, 191, 118)" stroke-width="1" d="M437.5,285.5C483,285.5,483,237.5,528.5,237.5"></path><path id="kity_path_51" fill="none" stroke="rgb(115, 191, 118)" stroke-width="1" d="M437.5,285.5C483,285.5,483,269.5,528.5,269.5"></path><path id="kity_path_53" fill="none" stroke="rgb(115, 191, 118)" stroke-width="1" d="M437.5,285.5C483,285.5,483,301.5,528.5,301.5"></path><path id="kity_path_55" fill="none" stroke="rgb(115, 191, 118)" stroke-width="1" d="M437.5,285.5C483,285.5,483,333.5,528.5,333.5"></path><path id="kity_path_57" fill="none" stroke="rgb(115, 191, 118)" stroke-width="1" d="M106.5,230.5A192,175,0,0,0,298.5,405.5"></path><path id="kity_path_59" fill="none" stroke="rgb(115, 191, 118)" stroke-width="1" d="M413.5,405.5C465,405.5,465,377.5,516.5,377.5"></path><path id="kity_path_61" fill="none" stroke="rgb(115, 191, 118)" stroke-width="1" d="M413.5,405.5C465,405.5,465,409.5,516.5,409.5"></path><path id="kity_path_63" fill="none" stroke="rgb(115, 191, 118)" stroke-width="1" d="M413.5,405.5C465,405.5,465,441.5,516.5,441.5"></path></g><g id="minder_node1"><path id="node_outline1" fill="rgb(115, 191, 118)" stroke="rgb(115, 191, 118)" d="M25.5,208.5h162a5,5,0,0,1,5,5v34a5,5,0,0,1,-5,5h-162a5,5,0,0,1,-5,-5v-34a5,5,0,0,1,5,-5z" stroke-width="3"></path><g id="node_text1" fill="white"><text id="kity_text_22" text-rendering="inherit" font-size="32" dy=".8em" y="207.45999908447266" font-family="comic sans ms" x="32.5">Animation</text></g></g><g id="kity_g_12"><path id="kity_path_13" fill="none" stroke="none" d="M32.5,230.5h0v0h0z"></path></g><g id="kity_g_14"><path id="kity_path_15" fill="none" stroke="none" d="M32.5,230.5h0v0h0z"></path><path id="kity_path_16" fill="none" stroke="none"></path></g><g id="minder_node2"><g id="node_expander4" style="cursor: pointer;"><path id="kity_path_125" fill="white" stroke="gray" d="M299.5,61.5A6,6,0,1,1,287.5,61.5A6,6,0,1,1,299.5,61.5"></path><path id="kity_path_126" fill="none" stroke="gray" d="M289,61.5L298,61.5"></path></g><path id="node_outline5" fill="rgb(238, 246, 238)" stroke="rgb(115, 191, 118)" d="M303.5,43.5h131a3,3,0,0,1,3,3v30a3,3,0,0,1,-3,3h-131a3,3,0,0,1,-3,-3v-30a3,3,0,0,1,3,-3z" stroke-width="1"></path><g id="node_text5" fill="black"><text id="kity_text_71" text-rendering="inherit" font-family="comic sans ms" font-size="24" dy=".8em" y="44.220001220703125" x="320.5">显示隐藏</text></g></g><g id="minder_node3"><g id="node_expander1" style="cursor: pointer;" display="none"><path id="kity_path_116" fill="white" stroke="gray" d="M554.5,32.5A6,6,0,1,1,542.5,32.5A6,6,0,1,1,554.5,32.5"></path><path id="kity_path_117" fill="none" stroke="gray"></path></g><path id="node_outline2" fill="none" stroke="none" d="M559.5,20.5h1a5,5,0,0,1,5,5v14a5,5,0,0,1,-5,5h-1a5,5,0,0,1,-5,-5v-14a5,5,0,0,1,5,-5z" stroke-width="3"></path><g id="node_text2" fill="black"><text id="kity_text_65" text-rendering="inherit" font-family="comic sans ms" font-size="18" dy=".8em" y="19.540000915527344" x="559.5">show</text></g></g><g id="minder_node4"><g id="node_expander2" style="cursor: pointer;" display="none"><path id="kity_path_119" fill="white" stroke="gray" d="M554.5,64.5A6,6,0,1,1,542.5,64.5A6,6,0,1,1,554.5,64.5"></path><path id="kity_path_120" fill="none" stroke="gray"></path></g><path id="node_outline3" fill="none" stroke="none" d="M559.5,52.5h1a5,5,0,0,1,5,5v14a5,5,0,0,1,-5,5h-1a5,5,0,0,1,-5,-5v-14a5,5,0,0,1,5,-5z" stroke-width="3"></path><g id="node_text3" fill="black"><text id="kity_text_67" text-rendering="inherit" font-family="comic sans ms" font-size="18" dy=".8em" y="51.540000915527344" x="559.5">hide</text></g></g><g id="minder_node5"><g id="node_expander3" style="cursor: pointer;" display="none"><path id="kity_path_122" fill="white" stroke="gray" d="M554.5,96.5A6,6,0,1,1,542.5,96.5A6,6,0,1,1,554.5,96.5"></path><path id="kity_path_123" fill="none" stroke="gray"></path></g><path id="node_outline4" fill="none" stroke="none" d="M559.5,84.5h1a5,5,0,0,1,5,5v14a5,5,0,0,1,-5,5h-1a5,5,0,0,1,-5,-5v-14a5,5,0,0,1,5,-5z" stroke-width="3"></path><g id="node_text4" fill="black"><text id="kity_text_69" text-rendering="inherit" font-family="comic sans ms" font-size="18" dy=".8em" y="83.54000091552734" x="559.5">toggle</text></g></g><g id="minder_node6"><g id="node_expander8" style="cursor: pointer;"><path id="kity_path_137" fill="white" stroke="gray" d="M299.5,165.5A6,6,0,1,1,287.5,165.5A6,6,0,1,1,299.5,165.5"></path><path id="kity_path_138" fill="none" stroke="gray" d="M289,165.5L298,165.5"></path></g><path id="node_outline9" fill="rgb(238, 246, 238)" stroke="rgb(115, 191, 118)" d="M303.5,147.5h83a3,3,0,0,1,3,3v30a3,3,0,0,1,-3,3h-83a3,3,0,0,1,-3,-3v-30a3,3,0,0,1,3,-3z" stroke-width="1"></path><g id="node_text9" fill="black"><text id="kity_text_79" text-rendering="inherit" font-family="comic sans ms" font-size="24" dy=".8em" y="148.22000122070312" x="320.5">滑动</text></g></g><g id="minder_node7"><g id="node_expander5" style="cursor: pointer;" display="none"><path id="kity_path_128" fill="white" stroke="gray" d="M519.5,130.5A6,6,0,1,1,507.5,130.5A6,6,0,1,1,519.5,130.5"></path><path id="kity_path_129" fill="none" stroke="gray"></path></g><path id="node_outline6" fill="none" stroke="none" d="M524.5,118.5h1a5,5,0,0,1,5,5v14a5,5,0,0,1,-5,5h-1a5,5,0,0,1,-5,-5v-14a5,5,0,0,1,5,-5z" stroke-width="3"></path><g id="node_text6" fill="black"><text id="kity_text_73" text-rendering="inherit" font-family="comic sans ms" font-size="18" dy=".8em" y="117.54000091552734" x="524.5">slideDown</text></g></g><g id="minder_node8"><g id="node_expander6" style="cursor: pointer;" display="none"><path id="kity_path_131" fill="white" stroke="gray" d="M519.5,162.5A6,6,0,1,1,507.5,162.5A6,6,0,1,1,519.5,162.5"></path><path id="kity_path_132" fill="none" stroke="gray"></path></g><path id="node_outline7" fill="none" stroke="none" d="M524.5,150.5h1a5,5,0,0,1,5,5v14a5,5,0,0,1,-5,5h-1a5,5,0,0,1,-5,-5v-14a5,5,0,0,1,5,-5z" stroke-width="3"></path><g id="node_text7" fill="black"><text id="kity_text_75" text-rendering="inherit" font-family="comic sans ms" font-size="18" dy=".8em" y="149.54000091552734" x="524.5">slideUp</text></g></g><g id="minder_node9"><g id="node_expander7" style="cursor: pointer;" display="none"><path id="kity_path_134" fill="white" stroke="gray" d="M519.5,194.5A6,6,0,1,1,507.5,194.5A6,6,0,1,1,519.5,194.5"></path><path id="kity_path_135" fill="none" stroke="gray"></path></g><path id="node_outline8" fill="none" stroke="none" d="M524.5,182.5h1a5,5,0,0,1,5,5v14a5,5,0,0,1,-5,5h-1a5,5,0,0,1,-5,-5v-14a5,5,0,0,1,5,-5z" stroke-width="3"></path><g id="node_text8" fill="black"><text id="kity_text_77" text-rendering="inherit" font-family="comic sans ms" font-size="18" dy=".8em" y="181.54000091552734" x="524.5">slideToggle</text></g></g><g id="minder_node10"><g id="node_expander13" style="cursor: pointer;"><path id="kity_path_152" fill="white" stroke="gray" d="M299.5,285.5A6,6,0,1,1,287.5,285.5A6,6,0,1,1,299.5,285.5"></path><path id="kity_path_153" fill="none" stroke="gray" d="M289,285.5L298,285.5"></path></g><path id="node_outline14" fill="rgb(238, 246, 238)" stroke="rgb(115, 191, 118)" d="M303.5,267.5h131a3,3,0,0,1,3,3v30a3,3,0,0,1,-3,3h-131a3,3,0,0,1,-3,-3v-30a3,3,0,0,1,3,-3z" stroke-width="1"></path><g id="node_text14" fill="black"><text id="kity_text_89" text-rendering="inherit" font-family="comic sans ms" font-size="24" dy=".8em" y="268.2200012207031" x="320.5">淡入淡出</text></g></g><g id="minder_node11"><g id="node_expander9" style="cursor: pointer;" display="none"><path id="kity_path_140" fill="white" stroke="gray" d="M528.5,237.5A6,6,0,1,1,516.5,237.5A6,6,0,1,1,528.5,237.5"></path><path id="kity_path_141" fill="none" stroke="gray"></path></g><path id="node_outline10" fill="none" stroke="none" d="M533.5,225.5h1a5,5,0,0,1,5,5v14a5,5,0,0,1,-5,5h-1a5,5,0,0,1,-5,-5v-14a5,5,0,0,1,5,-5z" stroke-width="3"></path><g id="node_text10" fill="black"><text id="kity_text_81" text-rendering="inherit" font-family="comic sans ms" font-size="18" dy=".8em" y="224.54000091552734" x="533.5">fadeIn</text></g></g><g id="minder_node12"><g id="node_expander10" style="cursor: pointer;" display="none"><path id="kity_path_143" fill="white" stroke="gray" d="M528.5,269.5A6,6,0,1,1,516.5,269.5A6,6,0,1,1,528.5,269.5"></path><path id="kity_path_144" fill="none" stroke="gray"></path></g><path id="node_outline11" fill="none" stroke="none" d="M533.5,257.5h1a5,5,0,0,1,5,5v14a5,5,0,0,1,-5,5h-1a5,5,0,0,1,-5,-5v-14a5,5,0,0,1,5,-5z" stroke-width="3"></path><g id="node_text11" fill="black"><text id="kity_text_83" text-rendering="inherit" font-family="comic sans ms" font-size="18" dy=".8em" y="256.54000091552734" x="533.5">fadeOut</text></g></g><g id="minder_node13"><g id="node_expander11" style="cursor: pointer;" display="none"><path id="kity_path_146" fill="white" stroke="gray" d="M528.5,301.5A6,6,0,1,1,516.5,301.5A6,6,0,1,1,528.5,301.5"></path><path id="kity_path_147" fill="none" stroke="gray"></path></g><path id="node_outline12" fill="none" stroke="none" d="M533.5,289.5h1a5,5,0,0,1,5,5v14a5,5,0,0,1,-5,5h-1a5,5,0,0,1,-5,-5v-14a5,5,0,0,1,5,-5z" stroke-width="3"></path><g id="node_text12" fill="black"><text id="kity_text_85" text-rendering="inherit" font-family="comic sans ms" font-size="18" dy=".8em" y="288.54000091552734" x="533.5">fadeToggle</text></g></g><g id="minder_node14"><g id="node_expander12" style="cursor: pointer;" display="none"><path id="kity_path_149" fill="white" stroke="gray" d="M528.5,333.5A6,6,0,1,1,516.5,333.5A6,6,0,1,1,528.5,333.5"></path><path id="kity_path_150" fill="none" stroke="gray"></path></g><path id="node_outline13" fill="none" stroke="none" d="M533.5,321.5h1a5,5,0,0,1,5,5v14a5,5,0,0,1,-5,5h-1a5,5,0,0,1,-5,-5v-14a5,5,0,0,1,5,-5z" stroke-width="3"></path><g id="node_text13" fill="black"><text id="kity_text_87" text-rendering="inherit" font-family="comic sans ms" font-size="18" dy=".8em" y="320.54000091552734" x="533.5">fadeTo</text></g></g><g id="minder_node15"><g id="node_expander17" style="cursor: pointer;"><path id="kity_path_164" fill="white" stroke="gray" d="M299.5,405.5A6,6,0,1,1,287.5,405.5A6,6,0,1,1,299.5,405.5"></path><path id="kity_path_165" fill="none" stroke="gray" d="M289,405.5L298,405.5"></path></g><path id="node_outline18" fill="rgb(238, 246, 238)" stroke="rgb(115, 191, 118)" d="M303.5,387.5h107a3,3,0,0,1,3,3v30a3,3,0,0,1,-3,3h-107a3,3,0,0,1,-3,-3v-30a3,3,0,0,1,3,-3z" stroke-width="1"></path><g id="node_text18" fill="black"><text id="kity_text_97" text-rendering="inherit" font-family="comic sans ms" font-size="24" dy=".8em" y="388.2200012207031" x="320.5">自定义</text></g></g><g id="minder_node16"><g id="node_expander14" style="cursor: pointer;" display="none"><path id="kity_path_155" fill="white" stroke="gray" d="M516.5,377.5A6,6,0,1,1,504.5,377.5A6,6,0,1,1,516.5,377.5"></path><path id="kity_path_156" fill="none" stroke="gray"></path></g><path id="node_outline15" fill="none" stroke="none" d="M521.5,365.5h1a5,5,0,0,1,5,5v14a5,5,0,0,1,-5,5h-1a5,5,0,0,1,-5,-5v-14a5,5,0,0,1,5,-5z" stroke-width="3"></path><g id="node_text15" fill="black"><text id="kity_text_91" text-rendering="inherit" font-family="comic sans ms" font-size="18" dy=".8em" y="364.54000091552734" x="521.5">animate</text></g></g><g id="minder_node17"><g id="node_expander15" style="cursor: pointer;" display="none"><path id="kity_path_158" fill="white" stroke="gray" d="M516.5,409.5A6,6,0,1,1,504.5,409.5A6,6,0,1,1,516.5,409.5"></path><path id="kity_path_159" fill="none" stroke="gray"></path></g><path id="node_outline16" fill="none" stroke="none" d="M521.5,397.5h1a5,5,0,0,1,5,5v14a5,5,0,0,1,-5,5h-1a5,5,0,0,1,-5,-5v-14a5,5,0,0,1,5,-5z" stroke-width="3"></path><g id="node_text16" fill="black"><text id="kity_text_93" text-rendering="inherit" font-family="comic sans ms" font-size="18" dy=".8em" y="396.54000091552734" x="521.5">stop</text></g></g><g id="minder_node18"><g id="node_expander16" style="cursor: pointer;" display="none"><path id="kity_path_161" fill="white" stroke="gray" d="M516.5,441.5A6,6,0,1,1,504.5,441.5A6,6,0,1,1,516.5,441.5"></path><path id="kity_path_162" fill="none" stroke="gray"></path></g><path id="node_outline17" fill="none" stroke="none" d="M521.5,429.5h1a5,5,0,0,1,5,5v14a5,5,0,0,1,-5,5h-1a5,5,0,0,1,-5,-5v-14a5,5,0,0,1,5,-5z" stroke-width="3"></path><g id="node_text17" fill="black"><text id="kity_text_95" text-rendering="inherit" font-family="comic sans ms" font-size="18" dy=".8em" y="428.54000091552734" x="521.5">delay</text></g></g></g></g></svg>