<svg id="kity_svg_6" xmlns="http://www.w3.org/2000/svg" xmlns:xlink="http://www.w3.org/1999/xlink" version="1.1" width="873" height="1600" style="background: rgb(251, 251, 251) none repeat scroll 0% 0%; visibility: visible;" viewBox="0 0 873 1600"><defs id="kity_defs_7"><linearGradient id="kity_linearGradient_17" x1="0" y1="0" x2="0" y2="1"><stop id="kity_stop_18" offset="0" stop-color="rgb(255, 255, 255)"></stop><stop id="kity_stop_19" offset="1" stop-color="rgb(204, 204, 204)"></stop></linearGradient><marker id="kity_marker_2" orient="auto" refX="6" refY="0" viewBox="-7 -7 14 14" markerWidth="7" markerHeight="7" markerUnits="userSpaceOnUse"><path id="kity_path_3" fill="rgb(115, 161, 191)" stroke="none" d="M6,0A6,6,0,1,1,-6,0A6,6,0,1,1,6,0"></path></marker></defs><g id="kity_g_8"><g id="minder1" text-rendering="optimize-speed"><g id="minder_connect_group1"><path id="kity_path_31" fill="none" stroke="rgb(115, 161, 191)" stroke-width="1" d="M83,366.5A180.5,328,0,0,1,263.5,38.5"></path><path id="kity_path_33" fill="none" stroke="rgb(115, 161, 191)" stroke-width="1" d="M363.5,38.5C383.5,38.5,383.5,38.5,403.5,38.5"></path><path id="kity_path_35" fill="none" stroke="rgb(115, 161, 191)" stroke-width="1" d="M83,366.5A180.5,328,0,0,0,263.5,694.5"></path><path id="kity_path_37" fill="none" stroke="rgb(115, 161, 191)" stroke-width="1" d="M354.5,694.5C374.5,694.5,374.5,362.5,394.5,362.5"></path><path id="kity_path_39" fill="none" stroke="rgb(115, 161, 191)" stroke-width="1" d="M415.5,362.5C435.5,362.5,435.5,138.5,455.5,138.5"></path><path id="kity_path_41" fill="none" stroke="rgb(115, 161, 191)" stroke-width="1" d="M476.5,138.5C496.5,138.5,496.5,110.5,516.5,110.5"></path><path id="kity_path_43" fill="none" stroke="rgb(115, 161, 191)" stroke-width="1" d="M476.5,138.5C496.5,138.5,496.5,166.5,516.5,166.5"></path><path id="kity_path_45" fill="none" stroke="rgb(115, 161, 191)" stroke-width="1" d="M415.5,362.5C435.5,362.5,435.5,278.5,455.5,278.5"></path><path id="kity_path_47" fill="none" stroke="rgb(115, 161, 191)" stroke-width="1" d="M476.5,278.5C526.5,278.5,526.5,222.5,576.5,222.5"></path><path id="kity_path_49" fill="none" stroke="rgb(115, 161, 191)" stroke-width="1" d="M476.5,278.5C526.5,278.5,526.5,278.5,576.5,278.5"></path><path id="kity_path_51" fill="none" stroke="rgb(115, 161, 191)" stroke-width="1" d="M476.5,278.5C526.5,278.5,526.5,334.5,576.5,334.5"></path><path id="kity_path_53" fill="none" stroke="rgb(115, 161, 191)" stroke-width="1" d="M415.5,362.5C435.5,362.5,435.5,586.5,455.5,586.5"></path><path id="kity_path_55" fill="none" stroke="rgb(115, 161, 191)" stroke-width="1" d="M476.5,586.5C513,586.5,513,391.5,549.5,391.5"></path><path id="kity_path_57" fill="none" stroke="rgb(115, 161, 191)" stroke-width="1" d="M570.5,391.5C590.5,391.5,590.5,391.5,610.5,391.5"></path><path id="kity_path_59" fill="none" stroke="rgb(115, 161, 191)" stroke-width="1" d="M476.5,586.5C513,586.5,513,447.5,549.5,447.5"></path><path id="kity_path_61" fill="none" stroke="rgb(115, 161, 191)" stroke-width="1" d="M570.5,447.5C590.5,447.5,590.5,447.5,610.5,447.5"></path><path id="kity_path_63" fill="none" stroke="rgb(115, 161, 191)" stroke-width="1" d="M476.5,586.5C513,586.5,513,503.5,549.5,503.5"></path><path id="kity_path_65" fill="none" stroke="rgb(115, 161, 191)" stroke-width="1" d="M570.5,503.5C590.5,503.5,590.5,503.5,610.5,503.5"></path><path id="kity_path_67" fill="none" stroke="rgb(115, 161, 191)" stroke-width="1" d="M476.5,586.5C513,586.5,513,559.5,549.5,559.5"></path><path id="kity_path_69" fill="none" stroke="rgb(115, 161, 191)" stroke-width="1" d="M570.5,559.5C590.5,559.5,590.5,559.5,610.5,559.5"></path><path id="kity_path_71" fill="none" stroke="rgb(115, 161, 191)" stroke-width="1" d="M476.5,586.5C513,586.5,513,615.5,549.5,615.5"></path><path id="kity_path_73" fill="none" stroke="rgb(115, 161, 191)" stroke-width="1" d="M570.5,615.5C590.5,615.5,590.5,615.5,610.5,615.5"></path><path id="kity_path_75" fill="none" stroke="rgb(115, 161, 191)" stroke-width="1" d="M476.5,586.5C513,586.5,513,671.5,549.5,671.5"></path><path id="kity_path_77" fill="none" stroke="rgb(115, 161, 191)" stroke-width="1" d="M476.5,586.5C513,586.5,513,727.5,549.5,727.5"></path><path id="kity_path_79" fill="none" stroke="rgb(115, 161, 191)" stroke-width="1" d="M476.5,586.5C513,586.5,513,783.5,549.5,783.5"></path><path id="kity_path_81" fill="none" stroke="rgb(115, 161, 191)" stroke-width="1" d="M354.5,694.5C374.5,694.5,374.5,1027.5,394.5,1027.5"></path><path id="kity_path_83" fill="none" stroke="rgb(115, 161, 191)" stroke-width="1" d="M415.5,1027.5C435.5,1027.5,435.5,894.5,455.5,894.5"></path><path id="kity_path_85" fill="none" stroke="rgb(115, 161, 191)" stroke-width="1" d="M476.5,894.5C532.5,894.5,532.5,841.5,588.5,841.5"></path><path id="kity_path_87" fill="none" stroke="rgb(115, 161, 191)" stroke-width="1" d="M476.5,894.5C532.5,894.5,532.5,897.5,588.5,897.5"></path><path id="kity_path_89" fill="none" stroke="rgb(115, 161, 191)" stroke-width="1" d="M476.5,894.5C532.5,894.5,532.5,953.5,588.5,953.5"></path><path id="kity_path_91" fill="none" stroke="rgb(115, 161, 191)" stroke-width="1" d="M415.5,1027.5C435.5,1027.5,435.5,1160.5,455.5,1160.5"></path><path id="kity_path_93" fill="none" stroke="rgb(115, 161, 191)" stroke-width="1" d="M574.5,1160.5C634.5,1160.5,634.5,1007.5,694.5,1007.5"></path><path id="kity_path_95" fill="none" stroke="rgb(115, 161, 191)" stroke-width="1" d="M715.5,1007.5C735.5,1007.5,735.5,1007.5,755.5,1007.5"></path><path id="kity_path_97" fill="none" stroke="rgb(115, 161, 191)" stroke-width="1" d="M574.5,1160.5C634.5,1160.5,634.5,1315.5,694.5,1315.5"></path><path id="kity_path_99" fill="none" stroke="rgb(115, 161, 191)" stroke-width="1" d="M715.5,1315.5C735.5,1315.5,735.5,1063.5,755.5,1063.5"></path><path id="kity_path_101" fill="none" stroke="rgb(115, 161, 191)" stroke-width="1" d="M715.5,1315.5C735.5,1315.5,735.5,1119.5,755.5,1119.5"></path><path id="kity_path_103" fill="none" stroke="rgb(115, 161, 191)" stroke-width="1" d="M715.5,1315.5C735.5,1315.5,735.5,1175.5,755.5,1175.5"></path><path id="kity_path_105" fill="none" stroke="rgb(115, 161, 191)" stroke-width="1" d="M715.5,1315.5C735.5,1315.5,735.5,1231.5,755.5,1231.5"></path><path id="kity_path_107" fill="none" stroke="rgb(115, 161, 191)" stroke-width="1" d="M715.5,1315.5C735.5,1315.5,735.5,1287.5,755.5,1287.5"></path><path id="kity_path_109" fill="none" stroke="rgb(115, 161, 191)" stroke-width="1" d="M715.5,1315.5C735.5,1315.5,735.5,1343.5,755.5,1343.5"></path><path id="kity_path_111" fill="none" stroke="rgb(115, 161, 191)" stroke-width="1" d="M715.5,1315.5C735.5,1315.5,735.5,1399.5,755.5,1399.5"></path><path id="kity_path_113" fill="none" stroke="rgb(115, 161, 191)" stroke-width="1" d="M715.5,1315.5C735.5,1315.5,735.5,1455.5,755.5,1455.5"></path><path id="kity_path_115" fill="none" stroke="rgb(115, 161, 191)" stroke-width="1" d="M715.5,1315.5C735.5,1315.5,735.5,1511.5,755.5,1511.5"></path><path id="kity_path_117" fill="none" stroke="rgb(115, 161, 191)" stroke-width="1" d="M715.5,1315.5C735.5,1315.5,735.5,1567.5,755.5,1567.5"></path></g><g id="minder_node1"><path id="node_outline1" fill="rgb(115, 161, 191)" stroke="rgb(57, 80, 96)" d="M25.5,338.5h115a5,5,0,0,1,5,5v46a5,5,0,0,1,-5,5h-115a5,5,0,0,1,-5,-5v-46a5,5,0,0,1,5,-5z" stroke-width="3"></path><g id="node_text1" fill="white"><text id="kity_text_22" text-rendering="inherit" font-size="32" dy=".8em" y="343.45999908447266" font-family="comic sans ms" x="44.5">DOM</text></g></g><g id="kity_g_12"><path id="kity_path_13" fill="none" stroke="none" d="M44.5,366.5h0v0h0z"></path></g><g id="kity_g_14"><path id="kity_path_15" fill="none" stroke="none" d="M44.5,366.5h0v0h0z"></path><path id="kity_path_16" fill="none" stroke="none"></path></g><g id="minder_node2"><g id="node_expander2" style="cursor: pointer;"><path id="kity_path_254" fill="white" stroke="gray" d="M264.5,38.5A6,6,0,1,1,252.5,38.5A6,6,0,1,1,264.5,38.5"></path><path id="kity_path_255" fill="none" stroke="gray" d="M254,38.5L263,38.5"></path></g><path id="node_outline3" fill="rgb(238, 243, 246)" stroke="rgb(57, 80, 96)" d="M268.5,20.5h92a3,3,0,0,1,3,3v30a3,3,0,0,1,-3,3h-92a3,3,0,0,1,-3,-3v-30a3,3,0,0,1,3,-3z" stroke-width="3"></path><g id="node_text3" fill="black"><text id="kity_text_121" text-rendering="inherit" font-family="comic sans ms" font-size="24" dy=".8em" y="21.220001220703125" x="285.5">DOM</text></g></g><g id="minder_node3"><g id="node_expander1" style="cursor: pointer;" display="none"><path id="kity_path_251" fill="white" stroke="gray" d="M403.5,38.5A6,6,0,1,1,391.5,38.5A6,6,0,1,1,403.5,38.5"></path><path id="kity_path_252" fill="none" stroke="gray"></path></g><path id="node_outline2" fill="none" stroke="rgb(57, 80, 96)" d="M408.5,21.5h11a5,5,0,0,1,5,5v24a5,5,0,0,1,-5,5h-11a5,5,0,0,1,-5,-5v-24a5,5,0,0,1,5,-5z" stroke-width="3"></path><g id="node_text2" fill="black"><text id="kity_text_119" text-rendering="inherit" font-family="comic sans ms" font-size="24" dy=".8em" y="21.220001220703125" x="413.5">.html/.htm/.xml文件</text></g></g><g id="minder_node4"><g id="node_expander44" style="cursor: pointer;"><path id="kity_path_380" fill="white" stroke="gray" d="M264.5,694.5A6,6,0,1,1,252.5,694.5A6,6,0,1,1,264.5,694.5"></path><path id="kity_path_381" fill="none" stroke="gray" d="M254,694.5L263,694.5"></path></g><path id="node_outline45" fill="rgb(238, 243, 246)" stroke="rgb(57, 80, 96)" d="M268.5,676.5h83a3,3,0,0,1,3,3v30a3,3,0,0,1,-3,3h-83a3,3,0,0,1,-3,-3v-30a3,3,0,0,1,3,-3z" stroke-width="3"></path><g id="node_text45" fill="black"><text id="kity_text_205" text-rendering="inherit" font-family="comic sans ms" font-size="24" dy=".8em" y="677.2200012207031" x="285.5">分类</text></g></g><g id="minder_node5"><g id="node_expander24" style="cursor: pointer;"><path id="kity_path_320" fill="white" stroke="gray" d="M394.5,362.5A6,6,0,1,1,382.5,362.5A6,6,0,1,1,394.5,362.5"></path><path id="kity_path_321" fill="none" stroke="gray" d="M384,362.5L393,362.5"></path></g><path id="node_outline25" fill="none" stroke="rgb(57, 80, 96)" d="M399.5,345.5h11a5,5,0,0,1,5,5v24a5,5,0,0,1,-5,5h-11a5,5,0,0,1,-5,-5v-24a5,5,0,0,1,5,-5z" stroke-width="3"></path><g id="node_text25" fill="black"><text id="kity_text_165" text-rendering="inherit" font-family="comic sans ms" font-size="24" dy=".8em" y="345.2200012207031" x="404.5">html</text></g></g><g id="minder_node6"><g id="node_expander5" style="cursor: pointer;"><path id="kity_path_263" fill="white" stroke="gray" d="M455.5,138.5A6,6,0,1,1,443.5,138.5A6,6,0,1,1,455.5,138.5"></path><path id="kity_path_264" fill="none" stroke="gray" d="M445,138.5L454,138.5"></path></g><path id="node_outline6" fill="none" stroke="rgb(57, 80, 96)" d="M460.5,124.5h11a5,5,0,0,1,5,5v18a5,5,0,0,1,-5,5h-11a5,5,0,0,1,-5,-5v-18a5,5,0,0,1,5,-5z" stroke-width="3"></path><g id="node_text6" fill="black"><text id="kity_text_127" text-rendering="inherit" font-family="comic sans ms" font-size="18" dy=".8em" y="125.54000091552734" x="465.5">属性</text></g></g><g id="minder_node7"><g id="node_expander3" style="cursor: pointer;" display="none"><path id="kity_path_257" fill="white" stroke="gray" d="M516.5,110.5A6,6,0,1,1,504.5,110.5A6,6,0,1,1,516.5,110.5"></path><path id="kity_path_258" fill="none" stroke="gray"></path></g><path id="node_outline4" fill="none" stroke="rgb(57, 80, 96)" d="M521.5,97.5h11a5,5,0,0,1,5,5v16a5,5,0,0,1,-5,5h-11a5,5,0,0,1,-5,-5v-16a5,5,0,0,1,5,-5z" stroke-width="3"></path><g id="node_text4" fill="black"><text id="kity_text_123" text-rendering="inherit" font-family="comic sans ms" font-size="16" dy=".8em" y="98.97999954223633" x="526.5">attr</text></g></g><g id="minder_node8"><g id="node_expander4" style="cursor: pointer;" display="none"><path id="kity_path_260" fill="white" stroke="gray" d="M516.5,166.5A6,6,0,1,1,504.5,166.5A6,6,0,1,1,516.5,166.5"></path><path id="kity_path_261" fill="none" stroke="gray"></path></g><path id="node_outline5" fill="none" stroke="rgb(57, 80, 96)" d="M521.5,153.5h11a5,5,0,0,1,5,5v16a5,5,0,0,1,-5,5h-11a5,5,0,0,1,-5,-5v-16a5,5,0,0,1,5,-5z" stroke-width="3"></path><g id="node_text5" fill="black"><text id="kity_text_125" text-rendering="inherit" font-family="comic sans ms" font-size="16" dy=".8em" y="154.97999954223633" x="526.5">removerAttr</text></g></g><g id="minder_node9"><g id="node_expander9" style="cursor: pointer;"><path id="kity_path_275" fill="white" stroke="gray" d="M455.5,278.5A6,6,0,1,1,443.5,278.5A6,6,0,1,1,455.5,278.5"></path><path id="kity_path_276" fill="none" stroke="gray" d="M445,278.5L454,278.5"></path></g><path id="node_outline10" fill="none" stroke="rgb(57, 80, 96)" d="M460.5,264.5h11a5,5,0,0,1,5,5v18a5,5,0,0,1,-5,5h-11a5,5,0,0,1,-5,-5v-18a5,5,0,0,1,5,-5z" stroke-width="3"></path><g id="node_text10" fill="black"><text id="kity_text_135" text-rendering="inherit" font-family="comic sans ms" font-size="18" dy=".8em" y="265.54000091552734" x="465.5">元素/节点</text></g></g><g id="minder_node10"><g id="node_expander6" style="cursor: pointer;" display="none"><path id="kity_path_266" fill="white" stroke="gray" d="M576.5,222.5A6,6,0,1,1,564.5,222.5A6,6,0,1,1,576.5,222.5"></path><path id="kity_path_267" fill="none" stroke="gray"></path></g><path id="node_outline7" fill="none" stroke="rgb(57, 80, 96)" d="M581.5,209.5h11a5,5,0,0,1,5,5v16a5,5,0,0,1,-5,5h-11a5,5,0,0,1,-5,-5v-16a5,5,0,0,1,5,-5z" stroke-width="3"></path><g id="node_text7" fill="black"><text id="kity_text_129" text-rendering="inherit" font-family="comic sans ms" font-size="16" dy=".8em" y="210.97999954223633" x="586.5">html</text></g></g><g id="minder_node11"><g id="node_expander7" style="cursor: pointer;" display="none"><path id="kity_path_269" fill="white" stroke="gray" d="M576.5,278.5A6,6,0,1,1,564.5,278.5A6,6,0,1,1,576.5,278.5"></path><path id="kity_path_270" fill="none" stroke="gray"></path></g><path id="node_outline8" fill="none" stroke="rgb(57, 80, 96)" d="M581.5,265.5h11a5,5,0,0,1,5,5v16a5,5,0,0,1,-5,5h-11a5,5,0,0,1,-5,-5v-16a5,5,0,0,1,5,-5z" stroke-width="3"></path><g id="node_text8" fill="black"><text id="kity_text_131" text-rendering="inherit" font-family="comic sans ms" font-size="16" dy=".8em" y="266.9799995422363" x="586.5">text</text></g></g><g id="minder_node12"><g id="node_expander8" style="cursor: pointer;" display="none"><path id="kity_path_272" fill="white" stroke="gray" d="M576.5,334.5A6,6,0,1,1,564.5,334.5A6,6,0,1,1,576.5,334.5"></path><path id="kity_path_273" fill="none" stroke="gray"></path></g><path id="node_outline9" fill="none" stroke="rgb(57, 80, 96)" d="M581.5,321.5h11a5,5,0,0,1,5,5v16a5,5,0,0,1,-5,5h-11a5,5,0,0,1,-5,-5v-16a5,5,0,0,1,5,-5z" stroke-width="3"></path><g id="node_text9" fill="black"><text id="kity_text_133" text-rendering="inherit" font-family="comic sans ms" font-size="16" dy=".8em" y="322.9799995422363" x="586.5">val</text></g></g><g id="minder_node13"><g id="node_expander23" style="cursor: pointer;"><path id="kity_path_317" fill="white" stroke="gray" d="M455.5,586.5A6,6,0,1,1,443.5,586.5A6,6,0,1,1,455.5,586.5"></path><path id="kity_path_318" fill="none" stroke="gray" d="M445,586.5L454,586.5"></path></g><path id="node_outline24" fill="none" stroke="rgb(57, 80, 96)" d="M460.5,572.5h11a5,5,0,0,1,5,5v18a5,5,0,0,1,-5,5h-11a5,5,0,0,1,-5,-5v-18a5,5,0,0,1,5,-5z" stroke-width="3"></path><g id="node_text24" fill="black"><text id="kity_text_163" text-rendering="inherit" font-family="comic sans ms" font-size="18" dy=".8em" y="573.5400009155273" x="465.5">文档处理</text></g></g><g id="minder_node14"><g id="node_expander11" style="cursor: pointer;"><path id="kity_path_281" fill="white" stroke="gray" d="M549.5,391.5A6,6,0,1,1,537.5,391.5A6,6,0,1,1,549.5,391.5"></path><path id="kity_path_282" fill="none" stroke="gray" d="M539,391.5L548,391.5"></path></g><path id="node_outline12" fill="none" stroke="rgb(57, 80, 96)" d="M554.5,378.5h11a5,5,0,0,1,5,5v16a5,5,0,0,1,-5,5h-11a5,5,0,0,1,-5,-5v-16a5,5,0,0,1,5,-5z" stroke-width="3"></path><g id="node_text12" fill="black"><text id="kity_text_139" text-rendering="inherit" font-family="comic sans ms" font-size="16" dy=".8em" y="379.9799995422363" x="559.5">append</text></g></g><g id="minder_node15"><g id="node_expander10" style="cursor: pointer;" display="none"><path id="kity_path_278" fill="white" stroke="gray" d="M610.5,391.5A6,6,0,1,1,598.5,391.5A6,6,0,1,1,610.5,391.5"></path><path id="kity_path_279" fill="none" stroke="gray"></path></g><path id="node_outline11" fill="none" stroke="rgb(57, 80, 96)" d="M615.5,378.5h11a5,5,0,0,1,5,5v16a5,5,0,0,1,-5,5h-11a5,5,0,0,1,-5,-5v-16a5,5,0,0,1,5,-5z" stroke-width="3"></path><g id="node_text11" fill="black"><text id="kity_text_137" text-rendering="inherit" font-family="comic sans ms" font-size="16" dy=".8em" y="379.9799995422363" x="620.5">appendTo</text></g></g><g id="minder_node16"><g id="node_expander13" style="cursor: pointer;"><path id="kity_path_287" fill="white" stroke="gray" d="M549.5,447.5A6,6,0,1,1,537.5,447.5A6,6,0,1,1,549.5,447.5"></path><path id="kity_path_288" fill="none" stroke="gray" d="M539,447.5L548,447.5"></path></g><path id="node_outline14" fill="none" stroke="rgb(57, 80, 96)" d="M554.5,434.5h11a5,5,0,0,1,5,5v16a5,5,0,0,1,-5,5h-11a5,5,0,0,1,-5,-5v-16a5,5,0,0,1,5,-5z" stroke-width="3"></path><g id="node_text14" fill="black"><text id="kity_text_143" text-rendering="inherit" font-family="comic sans ms" font-size="16" dy=".8em" y="435.9799995422363" x="559.5">prepend</text></g></g><g id="minder_node17"><g id="node_expander12" style="cursor: pointer;" display="none"><path id="kity_path_284" fill="white" stroke="gray" d="M610.5,447.5A6,6,0,1,1,598.5,447.5A6,6,0,1,1,610.5,447.5"></path><path id="kity_path_285" fill="none" stroke="gray"></path></g><path id="node_outline13" fill="none" stroke="rgb(57, 80, 96)" d="M615.5,434.5h11a5,5,0,0,1,5,5v16a5,5,0,0,1,-5,5h-11a5,5,0,0,1,-5,-5v-16a5,5,0,0,1,5,-5z" stroke-width="3"></path><g id="node_text13" fill="black"><text id="kity_text_141" text-rendering="inherit" font-family="comic sans ms" font-size="16" dy=".8em" y="435.9799995422363" x="620.5">prependTo</text></g></g><g id="minder_node18"><g id="node_expander15" style="cursor: pointer;"><path id="kity_path_293" fill="white" stroke="gray" d="M549.5,503.5A6,6,0,1,1,537.5,503.5A6,6,0,1,1,549.5,503.5"></path><path id="kity_path_294" fill="none" stroke="gray" d="M539,503.5L548,503.5"></path></g><path id="node_outline16" fill="none" stroke="rgb(57, 80, 96)" d="M554.5,490.5h11a5,5,0,0,1,5,5v16a5,5,0,0,1,-5,5h-11a5,5,0,0,1,-5,-5v-16a5,5,0,0,1,5,-5z" stroke-width="3"></path><g id="node_text16" fill="black"><text id="kity_text_147" text-rendering="inherit" font-family="comic sans ms" font-size="16" dy=".8em" y="491.9799995422363" x="559.5">after</text></g></g><g id="minder_node19"><g id="node_expander14" style="cursor: pointer;" display="none"><path id="kity_path_290" fill="white" stroke="gray" d="M610.5,503.5A6,6,0,1,1,598.5,503.5A6,6,0,1,1,610.5,503.5"></path><path id="kity_path_291" fill="none" stroke="gray"></path></g><path id="node_outline15" fill="none" stroke="rgb(57, 80, 96)" d="M615.5,490.5h11a5,5,0,0,1,5,5v16a5,5,0,0,1,-5,5h-11a5,5,0,0,1,-5,-5v-16a5,5,0,0,1,5,-5z" stroke-width="3"></path><g id="node_text15" fill="black"><text id="kity_text_145" text-rendering="inherit" font-family="comic sans ms" font-size="16" dy=".8em" y="491.9799995422363" x="620.5">insertAfter</text></g></g><g id="minder_node20"><g id="node_expander17" style="cursor: pointer;"><path id="kity_path_299" fill="white" stroke="gray" d="M549.5,559.5A6,6,0,1,1,537.5,559.5A6,6,0,1,1,549.5,559.5"></path><path id="kity_path_300" fill="none" stroke="gray" d="M539,559.5L548,559.5"></path></g><path id="node_outline18" fill="none" stroke="rgb(57, 80, 96)" d="M554.5,546.5h11a5,5,0,0,1,5,5v16a5,5,0,0,1,-5,5h-11a5,5,0,0,1,-5,-5v-16a5,5,0,0,1,5,-5z" stroke-width="3"></path><g id="node_text18" fill="black"><text id="kity_text_151" text-rendering="inherit" font-family="comic sans ms" font-size="16" dy=".8em" y="547.9799995422363" x="559.5">before</text></g></g><g id="minder_node21"><g id="node_expander16" style="cursor: pointer;" display="none"><path id="kity_path_296" fill="white" stroke="gray" d="M610.5,559.5A6,6,0,1,1,598.5,559.5A6,6,0,1,1,610.5,559.5"></path><path id="kity_path_297" fill="none" stroke="gray"></path></g><path id="node_outline17" fill="none" stroke="rgb(57, 80, 96)" d="M615.5,546.5h11a5,5,0,0,1,5,5v16a5,5,0,0,1,-5,5h-11a5,5,0,0,1,-5,-5v-16a5,5,0,0,1,5,-5z" stroke-width="3"></path><g id="node_text17" fill="black"><text id="kity_text_149" text-rendering="inherit" font-family="comic sans ms" font-size="16" dy=".8em" y="547.9799995422363" x="620.5">insertBefore</text></g></g><g id="minder_node22"><g id="node_expander19" style="cursor: pointer;"><path id="kity_path_305" fill="white" stroke="gray" d="M549.5,615.5A6,6,0,1,1,537.5,615.5A6,6,0,1,1,549.5,615.5"></path><path id="kity_path_306" fill="none" stroke="gray" d="M539,615.5L548,615.5"></path></g><path id="node_outline20" fill="none" stroke="rgb(57, 80, 96)" d="M554.5,602.5h11a5,5,0,0,1,5,5v16a5,5,0,0,1,-5,5h-11a5,5,0,0,1,-5,-5v-16a5,5,0,0,1,5,-5z" stroke-width="3"></path><g id="node_text20" fill="black"><text id="kity_text_155" text-rendering="inherit" font-family="comic sans ms" font-size="16" dy=".8em" y="603.9799995422363" x="559.5">wrap</text></g></g><g id="minder_node23"><g id="node_expander18" style="cursor: pointer;" display="none"><path id="kity_path_302" fill="white" stroke="gray" d="M610.5,615.5A6,6,0,1,1,598.5,615.5A6,6,0,1,1,610.5,615.5"></path><path id="kity_path_303" fill="none" stroke="gray"></path></g><path id="node_outline19" fill="none" stroke="rgb(57, 80, 96)" d="M615.5,602.5h11a5,5,0,0,1,5,5v16a5,5,0,0,1,-5,5h-11a5,5,0,0,1,-5,-5v-16a5,5,0,0,1,5,-5z" stroke-width="3"></path><g id="node_text19" fill="black"><text id="kity_text_153" text-rendering="inherit" font-family="comic sans ms" font-size="16" dy=".8em" y="603.9799995422363" x="620.5">unwrap</text></g></g><g id="minder_node24"><g id="node_expander20" style="cursor: pointer;" display="none"><path id="kity_path_308" fill="white" stroke="gray" d="M549.5,671.5A6,6,0,1,1,537.5,671.5A6,6,0,1,1,549.5,671.5"></path><path id="kity_path_309" fill="none" stroke="gray"></path></g><path id="node_outline21" fill="none" stroke="rgb(57, 80, 96)" d="M554.5,658.5h11a5,5,0,0,1,5,5v16a5,5,0,0,1,-5,5h-11a5,5,0,0,1,-5,-5v-16a5,5,0,0,1,5,-5z" stroke-width="3"></path><g id="node_text21" fill="black"><text id="kity_text_157" text-rendering="inherit" font-family="comic sans ms" font-size="16" dy=".8em" y="659.9799995422363" x="559.5">empty</text></g></g><g id="minder_node25"><g id="node_expander21" style="cursor: pointer;" display="none"><path id="kity_path_311" fill="white" stroke="gray" d="M549.5,727.5A6,6,0,1,1,537.5,727.5A6,6,0,1,1,549.5,727.5"></path><path id="kity_path_312" fill="none" stroke="gray"></path></g><path id="node_outline22" fill="none" stroke="rgb(57, 80, 96)" d="M554.5,714.5h11a5,5,0,0,1,5,5v16a5,5,0,0,1,-5,5h-11a5,5,0,0,1,-5,-5v-16a5,5,0,0,1,5,-5z" stroke-width="3"></path><g id="node_text22" fill="black"><text id="kity_text_159" text-rendering="inherit" font-family="comic sans ms" font-size="16" dy=".8em" y="715.9799995422363" x="559.5">remove</text></g></g><g id="minder_node26"><g id="node_expander22" style="cursor: pointer;" display="none"><path id="kity_path_314" fill="white" stroke="gray" d="M549.5,783.5A6,6,0,1,1,537.5,783.5A6,6,0,1,1,549.5,783.5"></path><path id="kity_path_315" fill="none" stroke="gray"></path></g><path id="node_outline23" fill="none" stroke="rgb(57, 80, 96)" d="M554.5,770.5h11a5,5,0,0,1,5,5v16a5,5,0,0,1,-5,5h-11a5,5,0,0,1,-5,-5v-16a5,5,0,0,1,5,-5z" stroke-width="3"></path><g id="node_text23" fill="black"><text id="kity_text_161" text-rendering="inherit" font-family="comic sans ms" font-size="16" dy=".8em" y="771.9799995422363" x="559.5">clone</text></g></g><g id="minder_node27"><g id="node_expander43" style="cursor: pointer;"><path id="kity_path_377" fill="white" stroke="gray" d="M394.5,1027.5A6,6,0,1,1,382.5,1027.5A6,6,0,1,1,394.5,1027.5"></path><path id="kity_path_378" fill="none" stroke="gray" d="M384,1027.5L393,1027.5"></path></g><path id="node_outline44" fill="none" stroke="rgb(57, 80, 96)" d="M399.5,1010.5h11a5,5,0,0,1,5,5v24a5,5,0,0,1,-5,5h-11a5,5,0,0,1,-5,-5v-24a5,5,0,0,1,5,-5z" stroke-width="3"></path><g id="node_text44" fill="black"><text id="kity_text_203" text-rendering="inherit" font-family="comic sans ms" font-size="24" dy=".8em" y="1010.2200012207031" x="404.5">css</text></g></g><g id="minder_node28"><g id="node_expander28" style="cursor: pointer;"><path id="kity_path_332" fill="white" stroke="gray" d="M455.5,894.5A6,6,0,1,1,443.5,894.5A6,6,0,1,1,455.5,894.5"></path><path id="kity_path_333" fill="none" stroke="gray" d="M445,894.5L454,894.5"></path></g><path id="node_outline29" fill="none" stroke="rgb(57, 80, 96)" d="M460.5,880.5h11a5,5,0,0,1,5,5v18a5,5,0,0,1,-5,5h-11a5,5,0,0,1,-5,-5v-18a5,5,0,0,1,5,-5z" stroke-width="3"></path><g id="node_text29" fill="black"><text id="kity_text_173" text-rendering="inherit" font-family="comic sans ms" font-size="18" dy=".8em" y="881.5400009155273" x="465.5">css类操作</text></g></g><g id="minder_node29"><g id="node_expander25" style="cursor: pointer;" display="none"><path id="kity_path_323" fill="white" stroke="gray" d="M588.5,841.5A6,6,0,1,1,576.5,841.5A6,6,0,1,1,588.5,841.5"></path><path id="kity_path_324" fill="none" stroke="gray"></path></g><path id="node_outline26" fill="none" stroke="rgb(57, 80, 96)" d="M593.5,828.5h11a5,5,0,0,1,5,5v16a5,5,0,0,1,-5,5h-11a5,5,0,0,1,-5,-5v-16a5,5,0,0,1,5,-5z" stroke-width="3"></path><g id="node_text26" fill="black"><text id="kity_text_167" text-rendering="inherit" font-family="comic sans ms" font-size="16" dy=".8em" y="829.9799995422363" x="598.5">addClass</text></g></g><g id="minder_node30"><g id="node_expander26" style="cursor: pointer;" display="none"><path id="kity_path_326" fill="white" stroke="gray" d="M588.5,897.5A6,6,0,1,1,576.5,897.5A6,6,0,1,1,588.5,897.5"></path><path id="kity_path_327" fill="none" stroke="gray"></path></g><path id="node_outline27" fill="none" stroke="rgb(57, 80, 96)" d="M593.5,884.5h11a5,5,0,0,1,5,5v16a5,5,0,0,1,-5,5h-11a5,5,0,0,1,-5,-5v-16a5,5,0,0,1,5,-5z" stroke-width="3"></path><g id="node_text27" fill="black"><text id="kity_text_169" text-rendering="inherit" font-family="comic sans ms" font-size="16" dy=".8em" y="885.9799995422363" x="598.5">removeClass</text></g></g><g id="minder_node31"><g id="node_expander27" style="cursor: pointer;" display="none"><path id="kity_path_329" fill="white" stroke="gray" d="M588.5,953.5A6,6,0,1,1,576.5,953.5A6,6,0,1,1,588.5,953.5"></path><path id="kity_path_330" fill="none" stroke="gray"></path></g><path id="node_outline28" fill="none" stroke="rgb(57, 80, 96)" d="M593.5,940.5h11a5,5,0,0,1,5,5v16a5,5,0,0,1,-5,5h-11a5,5,0,0,1,-5,-5v-16a5,5,0,0,1,5,-5z" stroke-width="3"></path><g id="node_text28" fill="black"><text id="kity_text_171" text-rendering="inherit" font-family="comic sans ms" font-size="16" dy=".8em" y="941.9799995422363" x="598.5">toggleClass</text></g></g><g id="minder_node32"><g id="node_expander42" style="cursor: pointer;"><path id="kity_path_374" fill="white" stroke="gray" d="M455.5,1160.5A6,6,0,1,1,443.5,1160.5A6,6,0,1,1,455.5,1160.5"></path><path id="kity_path_375" fill="none" stroke="gray" d="M445,1160.5L454,1160.5"></path></g><path id="node_outline43" fill="none" stroke="rgb(57, 80, 96)" d="M460.5,1146.5h109a5,5,0,0,1,5,5v18a5,5,0,0,1,-5,5h-109a5,5,0,0,1,-5,-5v-18a5,5,0,0,1,5,-5z" stroke-width="3"></path><g id="node_text43" fill="black"><text id="kity_text_201" text-rendering="inherit" font-family="comic sans ms" font-size="18" dy=".8em" y="1147.5400009155273" x="465.5">css基础操作</text></g></g><g id="minder_node33"><g id="node_expander30" style="cursor: pointer;"><path id="kity_path_338" fill="white" stroke="gray" d="M694.5,1007.5A6,6,0,1,1,682.5,1007.5A6,6,0,1,1,694.5,1007.5"></path><path id="kity_path_339" fill="none" stroke="gray" d="M684,1007.5L693,1007.5"></path></g><path id="node_outline31" fill="none" stroke="rgb(57, 80, 96)" d="M699.5,994.5h11a5,5,0,0,1,5,5v16a5,5,0,0,1,-5,5h-11a5,5,0,0,1,-5,-5v-16a5,5,0,0,1,5,-5z" stroke-width="3"></path><g id="node_text31" fill="black"><text id="kity_text_177" text-rendering="inherit" font-family="comic sans ms" font-size="16" dy=".8em" y="995.9799995422363" x="704.5">基础</text></g></g><g id="minder_node34"><g id="node_expander29" style="cursor: pointer;" display="none"><path id="kity_path_335" fill="white" stroke="gray" d="M755.5,1007.5A6,6,0,1,1,743.5,1007.5A6,6,0,1,1,755.5,1007.5"></path><path id="kity_path_336" fill="none" stroke="gray"></path></g><path id="node_outline30" fill="none" stroke="rgb(57, 80, 96)" d="M760.5,994.5h11a5,5,0,0,1,5,5v16a5,5,0,0,1,-5,5h-11a5,5,0,0,1,-5,-5v-16a5,5,0,0,1,5,-5z" stroke-width="3"></path><g id="node_text30" fill="black"><text id="kity_text_175" text-rendering="inherit" font-family="comic sans ms" font-size="16" dy=".8em" y="995.9799995422363" x="765.5">css</text></g></g><g id="minder_node35"><g id="node_expander41" style="cursor: pointer;"><path id="kity_path_371" fill="white" stroke="gray" d="M694.5,1315.5A6,6,0,1,1,682.5,1315.5A6,6,0,1,1,694.5,1315.5"></path><path id="kity_path_372" fill="none" stroke="gray" d="M684,1315.5L693,1315.5"></path></g><path id="node_outline42" fill="none" stroke="rgb(57, 80, 96)" d="M699.5,1302.5h11a5,5,0,0,1,5,5v16a5,5,0,0,1,-5,5h-11a5,5,0,0,1,-5,-5v-16a5,5,0,0,1,5,-5z" stroke-width="3"></path><g id="node_text42" fill="black"><text id="kity_text_199" text-rendering="inherit" font-family="comic sans ms" font-size="16" dy=".8em" y="1303.9799995422363" x="704.5">尺寸</text></g></g><g id="minder_node36"><g id="node_expander31" style="cursor: pointer;" display="none"><path id="kity_path_341" fill="white" stroke="gray" d="M755.5,1063.5A6,6,0,1,1,743.5,1063.5A6,6,0,1,1,755.5,1063.5"></path><path id="kity_path_342" fill="none" stroke="gray"></path></g><path id="node_outline32" fill="none" stroke="rgb(57, 80, 96)" d="M760.5,1050.5h11a5,5,0,0,1,5,5v16a5,5,0,0,1,-5,5h-11a5,5,0,0,1,-5,-5v-16a5,5,0,0,1,5,-5z" stroke-width="3"></path><g id="node_text32" fill="black"><text id="kity_text_179" text-rendering="inherit" font-family="comic sans ms" font-size="16" dy=".8em" y="1051.9799995422363" x="765.5">offset</text></g></g><g id="minder_node37"><g id="node_expander32" style="cursor: pointer;" display="none"><path id="kity_path_344" fill="white" stroke="gray" d="M755.5,1119.5A6,6,0,1,1,743.5,1119.5A6,6,0,1,1,755.5,1119.5"></path><path id="kity_path_345" fill="none" stroke="gray"></path></g><path id="node_outline33" fill="none" stroke="rgb(57, 80, 96)" d="M760.5,1106.5h11a5,5,0,0,1,5,5v16a5,5,0,0,1,-5,5h-11a5,5,0,0,1,-5,-5v-16a5,5,0,0,1,5,-5z" stroke-width="3"></path><g id="node_text33" fill="black"><text id="kity_text_181" text-rendering="inherit" font-family="comic sans ms" font-size="16" dy=".8em" y="1107.9799995422363" x="765.5">position</text></g></g><g id="minder_node38"><g id="node_expander33" style="cursor: pointer;" display="none"><path id="kity_path_347" fill="white" stroke="gray" d="M755.5,1175.5A6,6,0,1,1,743.5,1175.5A6,6,0,1,1,755.5,1175.5"></path><path id="kity_path_348" fill="none" stroke="gray"></path></g><path id="node_outline34" fill="none" stroke="rgb(57, 80, 96)" d="M760.5,1162.5h11a5,5,0,0,1,5,5v16a5,5,0,0,1,-5,5h-11a5,5,0,0,1,-5,-5v-16a5,5,0,0,1,5,-5z" stroke-width="3"></path><g id="node_text34" fill="black"><text id="kity_text_183" text-rendering="inherit" font-family="comic sans ms" font-size="16" dy=".8em" y="1163.9799995422363" x="765.5">scrollTop</text></g></g><g id="minder_node39"><g id="node_expander34" style="cursor: pointer;" display="none"><path id="kity_path_350" fill="white" stroke="gray" d="M755.5,1231.5A6,6,0,1,1,743.5,1231.5A6,6,0,1,1,755.5,1231.5"></path><path id="kity_path_351" fill="none" stroke="gray"></path></g><path id="node_outline35" fill="none" stroke="rgb(57, 80, 96)" d="M760.5,1218.5h11a5,5,0,0,1,5,5v16a5,5,0,0,1,-5,5h-11a5,5,0,0,1,-5,-5v-16a5,5,0,0,1,5,-5z" stroke-width="3"></path><g id="node_text35" fill="black"><text id="kity_text_185" text-rendering="inherit" font-family="comic sans ms" font-size="16" dy=".8em" y="1219.9799995422363" x="765.5">scrollLeft</text></g></g><g id="minder_node40"><g id="node_expander35" style="cursor: pointer;" display="none"><path id="kity_path_353" fill="white" stroke="gray" d="M755.5,1287.5A6,6,0,1,1,743.5,1287.5A6,6,0,1,1,755.5,1287.5"></path><path id="kity_path_354" fill="none" stroke="gray"></path></g><path id="node_outline36" fill="none" stroke="rgb(57, 80, 96)" d="M760.5,1274.5h11a5,5,0,0,1,5,5v16a5,5,0,0,1,-5,5h-11a5,5,0,0,1,-5,-5v-16a5,5,0,0,1,5,-5z" stroke-width="3"></path><g id="node_text36" fill="black"><text id="kity_text_187" text-rendering="inherit" font-family="comic sans ms" font-size="16" dy=".8em" y="1275.9799995422363" x="765.5">height</text></g></g><g id="minder_node41"><g id="node_expander36" style="cursor: pointer;" display="none"><path id="kity_path_356" fill="white" stroke="gray" d="M755.5,1343.5A6,6,0,1,1,743.5,1343.5A6,6,0,1,1,755.5,1343.5"></path><path id="kity_path_357" fill="none" stroke="gray"></path></g><path id="node_outline37" fill="none" stroke="rgb(57, 80, 96)" d="M760.5,1330.5h11a5,5,0,0,1,5,5v16a5,5,0,0,1,-5,5h-11a5,5,0,0,1,-5,-5v-16a5,5,0,0,1,5,-5z" stroke-width="3"></path><g id="node_text37" fill="black"><text id="kity_text_189" text-rendering="inherit" font-family="comic sans ms" font-size="16" dy=".8em" y="1331.9799995422363" x="765.5">width</text></g></g><g id="minder_node42"><g id="node_expander37" style="cursor: pointer;" display="none"><path id="kity_path_359" fill="white" stroke="gray" d="M755.5,1399.5A6,6,0,1,1,743.5,1399.5A6,6,0,1,1,755.5,1399.5"></path><path id="kity_path_360" fill="none" stroke="gray"></path></g><path id="node_outline38" fill="none" stroke="rgb(57, 80, 96)" d="M760.5,1386.5h11a5,5,0,0,1,5,5v16a5,5,0,0,1,-5,5h-11a5,5,0,0,1,-5,-5v-16a5,5,0,0,1,5,-5z" stroke-width="3"></path><g id="node_text38" fill="black"><text id="kity_text_191" text-rendering="inherit" font-family="comic sans ms" font-size="16" dy=".8em" y="1387.9799995422363" x="765.5">innerHeight</text></g></g><g id="minder_node43"><g id="node_expander38" style="cursor: pointer;" display="none"><path id="kity_path_362" fill="white" stroke="gray" d="M755.5,1455.5A6,6,0,1,1,743.5,1455.5A6,6,0,1,1,755.5,1455.5"></path><path id="kity_path_363" fill="none" stroke="gray"></path></g><path id="node_outline39" fill="none" stroke="rgb(57, 80, 96)" d="M760.5,1442.5h11a5,5,0,0,1,5,5v16a5,5,0,0,1,-5,5h-11a5,5,0,0,1,-5,-5v-16a5,5,0,0,1,5,-5z" stroke-width="3"></path><g id="node_text39" fill="black"><text id="kity_text_193" text-rendering="inherit" font-family="comic sans ms" font-size="16" dy=".8em" y="1443.9799995422363" x="765.5">innerWidth</text></g></g><g id="minder_node44"><g id="node_expander39" style="cursor: pointer;" display="none"><path id="kity_path_365" fill="white" stroke="gray" d="M755.5,1511.5A6,6,0,1,1,743.5,1511.5A6,6,0,1,1,755.5,1511.5"></path><path id="kity_path_366" fill="none" stroke="gray"></path></g><path id="node_outline40" fill="none" stroke="rgb(57, 80, 96)" d="M760.5,1498.5h11a5,5,0,0,1,5,5v16a5,5,0,0,1,-5,5h-11a5,5,0,0,1,-5,-5v-16a5,5,0,0,1,5,-5z" stroke-width="3"></path><g id="node_text40" fill="black"><text id="kity_text_195" text-rendering="inherit" font-family="comic sans ms" font-size="16" dy=".8em" y="1499.9799995422363" x="765.5">outeHeight</text></g></g><g id="minder_node45"><g id="node_expander40" style="cursor: pointer;" display="none"><path id="kity_path_368" fill="white" stroke="gray" d="M755.5,1567.5A6,6,0,1,1,743.5,1567.5A6,6,0,1,1,755.5,1567.5"></path><path id="kity_path_369" fill="none" stroke="gray"></path></g><path id="node_outline41" fill="none" stroke="rgb(57, 80, 96)" d="M760.5,1554.5h11a5,5,0,0,1,5,5v16a5,5,0,0,1,-5,5h-11a5,5,0,0,1,-5,-5v-16a5,5,0,0,1,5,-5z" stroke-width="3"></path><g id="node_text41" fill="black"><text id="kity_text_197" text-rendering="inherit" font-family="comic sans ms" font-size="16" dy=".8em" y="1555.9799995422363" x="765.5">outeWidth</text></g></g></g></g></svg>