<svg id="kity_svg_6" xmlns="http://www.w3.org/2000/svg" xmlns:xlink="http://www.w3.org/1999/xlink" version="1.1" width="1527" height="1794" style="background: rgb(251, 251, 251); visibility: visible;" viewBox="0 0 1527 1794"><defs id="kity_defs_7"><linearGradient id="kity_linearGradient_17" x1="0" y1="0" x2="0" y2="1"><stop id="kity_stop_18" offset="0" stop-color="rgb(255, 255, 255)"></stop><stop id="kity_stop_19" offset="1" stop-color="rgb(204, 204, 204)"></stop></linearGradient><marker id="kity_marker_2" orient="auto" refX="6" refY="0" viewBox="-7 -7 14 14" markerWidth="7" markerHeight="7" markerUnits="userSpaceOnUse"><path id="kity_path_3" fill="rgb(115, 161, 191)" stroke="none" d="M6,0A6,6,0,1,1,-6,0A6,6,0,1,1,6,0"></path></marker></defs><g id="kity_g_8"><g id="minder1" text-rendering="optimize-speed"><g id="minder_connect_group1"><path id="kity_path_31" fill="none" stroke="rgb(115, 161, 191)" stroke-width="1" d="M175.5,532.5A273,440,0,0,1,448.5,92.5"></path><path id="kity_path_33" fill="none" stroke="rgb(115, 161, 191)" stroke-width="1" d="M520.5,92.5C540.5,92.5,540.5,40.5,560.5,40.5"></path><path id="kity_path_35" fill="none" stroke="rgb(115, 161, 191)" stroke-width="1" d="M520.5,92.5C540.5,92.5,540.5,101.5,560.5,101.5"></path><path id="kity_path_37" fill="none" stroke="rgb(115, 161, 191)" stroke-width="1" d="M520.5,92.5C540.5,92.5,540.5,153.5,560.5,153.5"></path><path id="kity_path_39" fill="none" stroke="rgb(115, 161, 191)" stroke-width="1" d="M175.5,532.5A273,441,0,0,0,448.5,973.5"></path><path id="kity_path_41" fill="none" stroke="rgb(115, 161, 191)" stroke-width="1" d="M519.5,973.5C539.5,973.5,539.5,359.5,559.5,359.5"></path><path id="kity_path_43" fill="none" stroke="rgb(115, 161, 191)" stroke-width="1" d="M820.5,359.5C860.5,359.5,860.5,359.5,900.5,359.5"></path><path id="kity_path_45" fill="none" stroke="rgb(115, 161, 191)" stroke-width="1" d="M519.5,973.5C539.5,973.5,539.5,717.5,559.5,717.5"></path><path id="kity_path_47" fill="none" stroke="rgb(115, 161, 191)" stroke-width="1" d="M665.5,717.5C685.5,717.5,685.5,717.5,705.5,717.5"></path><path id="kity_path_49" fill="none" stroke="rgb(115, 161, 191)" stroke-width="1" d="M1014.5,717.5C1042.5,717.5,1042.5,816.5,1070.5,816.5"></path><path id="kity_path_51" fill="none" stroke="rgb(115, 161, 191)" stroke-width="1" d="M519.5,973.5C572,973.5,572,1124.5,624.5,1124.5"></path><path id="kity_path_53" fill="none" stroke="rgb(115, 161, 191)" stroke-width="1" d="M742.5,1124.5C801.5,1124.5,801.5,1122.5,860.5,1122.5"></path><path id="kity_path_55" fill="none" stroke="rgb(115, 161, 191)" stroke-width="1" d="M519.5,973.5C544,973.5,544,1445.5,568.5,1445.5"></path><path id="kity_path_57" fill="none" stroke="rgb(115, 161, 191)" stroke-width="1" d="M638.5,1445.5C661,1445.5,661,1445.5,683.5,1445.5"></path><path id="kity_path_59" fill="none" stroke="rgb(115, 161, 191)" stroke-width="1" d="M908.5,1445.5C928.5,1445.5,928.5,1445.5,948.5,1445.5"></path><path id="kity_path_61" fill="none" stroke="rgb(115, 161, 191)" stroke-width="1" d="M1264.5,1445.5C1284.5,1445.5,1284.5,1263.5,1304.5,1263.5"></path><path id="kity_path_63" fill="none" stroke="rgb(115, 161, 191)" stroke-width="1" d="M1264.5,1445.5C1284.5,1445.5,1284.5,1315.5,1304.5,1315.5"></path><path id="kity_path_65" fill="none" stroke="rgb(115, 161, 191)" stroke-width="1" d="M1264.5,1445.5C1284.5,1445.5,1284.5,1367.5,1304.5,1367.5"></path><path id="kity_path_67" fill="none" stroke="rgb(115, 161, 191)" stroke-width="1" d="M1264.5,1445.5C1284.5,1445.5,1284.5,1419.5,1304.5,1419.5"></path><path id="kity_path_69" fill="none" stroke="rgb(115, 161, 191)" stroke-width="1" d="M1264.5,1445.5C1284.5,1445.5,1284.5,1471.5,1304.5,1471.5"></path><path id="kity_path_71" fill="none" stroke="rgb(115, 161, 191)" stroke-width="1" d="M1264.5,1445.5C1284.5,1445.5,1284.5,1523.5,1304.5,1523.5"></path><path id="kity_path_73" fill="none" stroke="rgb(115, 161, 191)" stroke-width="1" d="M1264.5,1445.5C1284.5,1445.5,1284.5,1575.5,1304.5,1575.5"></path><path id="kity_path_75" fill="none" stroke="rgb(115, 161, 191)" stroke-width="1" d="M1264.5,1445.5C1284.5,1445.5,1284.5,1627.5,1304.5,1627.5"></path><path id="kity_path_77" fill="none" stroke="rgb(115, 161, 191)" stroke-width="1" d="M519.5,973.5C521,973.5,521,1737.5,522.5,1737.5"></path><path id="kity_path_79" fill="none" stroke="rgb(115, 161, 191)" stroke-width="1" d="M568.5,1737.5C588.5,1737.5,588.5,1711.5,608.5,1711.5"></path><path id="kity_path_81" fill="none" stroke="rgb(115, 161, 191)" stroke-width="1" d="M568.5,1737.5C588.5,1737.5,588.5,1763.5,608.5,1763.5"></path></g><g id="minder_node1"><path id="node_outline1" fill="rgb(115, 161, 191)" stroke="rgb(115, 161, 191)" d="M25.5,512.5h300a5,5,0,0,1,5,5v30a5,5,0,0,1,-5,5h-300a5,5,0,0,1,-5,-5v-30a5,5,0,0,1,5,-5z" stroke-width="3"></path><g id="node_text1" fill="white"><text id="kity_text_22" text-rendering="inherit" font-size="16" dy=".8em" y="522.0999999046326" x="44.5">2 HTML5 地理定位（Geolocation）</text></g></g><g id="kity_g_12"><path id="kity_path_13" fill="none" stroke="none" d="M44.5,532.5h0v0h0z"></path></g><g id="kity_g_14"><path id="kity_path_15" fill="none" stroke="none" d="M44.5,532.5h0v0h0z"></path><path id="kity_path_16" fill="none" stroke="none"></path></g><g id="minder_node2"><g id="node_expander4" style="cursor: pointer;"><path id="kity_path_216" fill="white" stroke="gray" d="M449.5,92.5A6,6,0,1,1,437.5,92.5A6,6,0,1,1,449.5,92.5"></path><path id="kity_path_217" fill="none" stroke="gray" d="M439,92.5L448,92.5"></path></g><path id="node_outline5" fill="rgb(238, 243, 246)" stroke="rgb(115, 161, 191)" d="M453.5,79.5h64a3,3,0,0,1,3,3v20a3,3,0,0,1,-3,3h-64a3,3,0,0,1,-3,-3v-20a3,3,0,0,1,3,-3z" stroke-width="1"></path><g id="node_text5" fill="black"><text id="kity_text_90" text-rendering="inherit" font-size="14" dy=".8em" y="83.40000009536743" x="470.5">概述</text></g></g><g id="minder_node3"><g id="node_expander1" style="cursor: pointer;" display="none"><path id="kity_path_207" fill="white" stroke="gray" d="M560.5,40.5A6,6,0,1,1,548.5,40.5A6,6,0,1,1,560.5,40.5"></path><path id="kity_path_208" fill="none" stroke="gray"></path></g><path id="node_outline2" fill="none" stroke="none" d="M565.5,20.5h443a5,5,0,0,1,5,5v30a5,5,0,0,1,-5,5h-443a5,5,0,0,1,-5,-5v-30a5,5,0,0,1,5,-5z" stroke-width="3"></path><g id="node_text2" fill="black"><text id="kity_text_83" text-rendering="inherit" font-size="12" dy=".8em" y="23.700000047683716" x="570.5">Geolocation API用于获得用户的地理位置</text><text id="kity_text_84" text-rendering="inherit" font-size="12" dy=".8em" y="41.700000047683716" x="570.5">鉴于该特性可能低侵犯用户的隐私，除非用户同意，否则用户位置信息是不可用的</text></g></g><g id="minder_node4"><g id="node_expander2" style="cursor: pointer;" display="none"><path id="kity_path_210" fill="white" stroke="gray" d="M560.5,101.5A6,6,0,1,1,548.5,101.5A6,6,0,1,1,560.5,101.5"></path><path id="kity_path_211" fill="none" stroke="gray"></path></g><path id="node_outline3" fill="none" stroke="none" d="M565.5,90.5h496a5,5,0,0,1,5,5v12a5,5,0,0,1,-5,5h-496a5,5,0,0,1,-5,-5v-12a5,5,0,0,1,5,-5z" stroke-width="3"></path><g id="node_text3" fill="black"><text id="kity_text_86" text-rendering="inherit" font-size="12" dy=".8em" y="93.70000004768372" x="570.5">浏览器支持：Internet Explorer 9、Firefox、Chrome、Safari 以及 Opera 支持地理定位。</text></g></g><g id="minder_node5"><g id="node_expander3" style="cursor: pointer;" display="none"><path id="kity_path_213" fill="white" stroke="gray" d="M560.5,153.5A6,6,0,1,1,548.5,153.5A6,6,0,1,1,560.5,153.5"></path><path id="kity_path_214" fill="none" stroke="gray"></path></g><path id="node_outline4" fill="none" stroke="none" d="M565.5,142.5h312a5,5,0,0,1,5,5v12a5,5,0,0,1,-5,5h-312a5,5,0,0,1,-5,-5v-12a5,5,0,0,1,5,-5z" stroke-width="3"></path><g id="node_text4" fill="black"><text id="kity_text_88" text-rendering="inherit" font-size="12" dy=".8em" y="145.70000004768372" x="570.5">对于拥有 GPS 的设备，比如 iPhone，地理定位更加精确</text></g></g><g id="minder_node6"><g id="node_expander26" style="cursor: pointer;"><path id="kity_path_282" fill="white" stroke="gray" d="M449.5,973.5A6,6,0,1,1,437.5,973.5A6,6,0,1,1,449.5,973.5"></path><path id="kity_path_283" fill="none" stroke="gray" d="M439,973.5L448,973.5"></path></g><path id="node_outline27" fill="rgb(238, 243, 246)" stroke="rgb(115, 161, 191)" d="M453.5,960.5h63a3,3,0,0,1,3,3v20a3,3,0,0,1,-3,3h-63a3,3,0,0,1,-3,-3v-20a3,3,0,0,1,3,-3z" stroke-width="1"></path><g id="node_text27" fill="black"><text id="kity_text_179" text-rendering="inherit" font-size="14" dy=".8em" y="964.4000000953674" x="470.5">使用</text></g></g><g id="minder_node7"><g id="node_expander6" style="cursor: pointer;"><path id="kity_path_222" fill="white" stroke="gray" d="M559.5,359.5A6,6,0,1,1,547.5,359.5A6,6,0,1,1,559.5,359.5"></path><path id="kity_path_223" fill="none" stroke="gray" d="M549,359.5L558,359.5"></path></g><path id="node_outline7" fill="none" stroke="none" d="M564.5,348.5h251a5,5,0,0,1,5,5v12a5,5,0,0,1,-5,5h-251a5,5,0,0,1,-5,-5v-12a5,5,0,0,1,5,-5z" stroke-width="3"></path><g id="node_text7" fill="black"><text id="kity_text_110" text-rendering="inherit" font-size="12" dy=".8em" y="351.7000000476837" x="569.5">getCurrentPosition() 方法来获得用户的位置</text></g></g><g id="minder_node8"><g id="node_expander5" style="cursor: pointer;" display="none"><path id="kity_path_219" fill="white" stroke="gray" d="M900.5,359.5A6,6,0,1,1,888.5,359.5A6,6,0,1,1,900.5,359.5"></path><path id="kity_path_220" fill="none" stroke="gray"></path></g><path id="node_outline6" fill="none" stroke="none" d="M905.5,204.5h397a5,5,0,0,1,5,5v300a5,5,0,0,1,-5,5h-397a5,5,0,0,1,-5,-5v-300a5,5,0,0,1,5,-5z" stroke-width="3"></path><g id="node_text6" fill="black"><text id="kity_text_92" text-rendering="inherit" font-size="12" dy=".8em" y="207.70000004768372" x="910.5">获取用户位置的经度和纬度：</text><text id="kity_text_93" text-rendering="inherit" font-size="12" dy=".8em" y="225.70000004768372" x="910.5">&lt;script&gt;</text><text id="kity_text_94" text-rendering="inherit" font-size="12" dy=".8em" y="243.70000004768372" x="910.5">var x=document.getElementById("demo");</text><text id="kity_text_95" text-rendering="inherit" font-size="12" dy=".8em" y="261.7000000476837" x="910.5">function getLocation()</text><text id="kity_text_96" text-rendering="inherit" font-size="12" dy=".8em" y="279.7000000476837" x="910.5">  {</text><text id="kity_text_97" text-rendering="inherit" font-size="12" dy=".8em" y="297.7000000476837" x="910.5">  if (navigator.geolocation)</text><text id="kity_text_98" text-rendering="inherit" font-size="12" dy=".8em" y="315.7000000476837" x="910.5">	{</text><text id="kity_text_99" text-rendering="inherit" font-size="12" dy=".8em" y="333.7000000476837" x="910.5">	navigator.geolocation.getCurrentPosition(showPosition);</text><text id="kity_text_100" text-rendering="inherit" font-size="12" dy=".8em" y="351.7000000476837" x="910.5">	}</text><text id="kity_text_101" text-rendering="inherit" font-size="12" dy=".8em" y="369.7000000476837" x="910.5">  else{x.innerHTML="Geolocation is not supported by this browser.";}</text><text id="kity_text_102" text-rendering="inherit" font-size="12" dy=".8em" y="387.7000000476837" x="910.5">  }</text><text id="kity_text_103" text-rendering="inherit" font-size="12" dy=".8em" y="405.7000000476837" x="910.5">function showPosition(position)</text><text id="kity_text_104" text-rendering="inherit" font-size="12" dy=".8em" y="423.7000000476837" x="910.5">  {</text><text id="kity_text_105" text-rendering="inherit" font-size="12" dy=".8em" y="441.7000000476837" x="910.5">  x.innerHTML="Latitude: " + position.coords.latitude +</text><text id="kity_text_106" text-rendering="inherit" font-size="12" dy=".8em" y="459.7000000476837" x="910.5">  "&lt;br /&gt;Longitude: " + position.coords.longitude;</text><text id="kity_text_107" text-rendering="inherit" font-size="12" dy=".8em" y="477.7000000476837" x="910.5">  }</text><text id="kity_text_108" text-rendering="inherit" font-size="12" dy=".8em" y="495.7000000476837" x="910.5">&lt;/script&gt;</text></g></g><g id="minder_node9"><g id="node_expander9" style="cursor: pointer;"><path id="kity_path_231" fill="white" stroke="gray" d="M559.5,717.5A6,6,0,1,1,547.5,717.5A6,6,0,1,1,559.5,717.5"></path><path id="kity_path_232" fill="none" stroke="gray" d="M549,717.5L558,717.5"></path></g><path id="node_outline10" fill="none" stroke="none" d="M564.5,706.5h96a5,5,0,0,1,5,5v12a5,5,0,0,1,-5,5h-96a5,5,0,0,1,-5,-5v-12a5,5,0,0,1,5,-5z" stroke-width="3"></path><g id="node_text10" fill="black"><text id="kity_text_134" text-rendering="inherit" font-size="12" dy=".8em" y="709.7000000476837" x="569.5">处理错误和拒绝</text></g></g><g id="minder_node10"><g id="node_expander8" style="cursor: pointer;"><path id="kity_path_228" fill="white" stroke="gray" d="M705.5,717.5A6,6,0,1,1,693.5,717.5A6,6,0,1,1,705.5,717.5"></path><path id="kity_path_229" fill="none" stroke="gray" d="M695,717.5L704,717.5"></path></g><path id="node_outline9" fill="none" stroke="none" d="M710.5,706.5h299a5,5,0,0,1,5,5v12a5,5,0,0,1,-5,5h-299a5,5,0,0,1,-5,-5v-12a5,5,0,0,1,5,-5z" stroke-width="3"></path><g id="node_text9" fill="black"><text id="kity_text_132" text-rendering="inherit" font-size="12" dy=".8em" y="709.7000000476837" x="715.5">getCurrentPosition() 方法的第二个参数用于处理错误</text></g></g><g id="minder_node11"><g id="node_expander7" style="cursor: pointer;" display="none"><path id="kity_path_225" fill="white" stroke="gray" d="M1070.5,816.5A6,6,0,1,1,1058.5,816.5A6,6,0,1,1,1070.5,816.5"></path><path id="kity_path_226" fill="none" stroke="gray"></path></g><path id="node_outline8" fill="none" stroke="none" d="M1075.5,643.5h349a5,5,0,0,1,5,5v336a5,5,0,0,1,-5,5h-349a5,5,0,0,1,-5,-5v-336a5,5,0,0,1,5,-5z" stroke-width="3"></path><g id="node_text8" fill="black"><text id="kity_text_112" text-rendering="inherit" font-size="12" dy=".8em" y="646.7000000476837" x="1080.5">当获取用户位置失败时运行的函数：</text><text id="kity_text_113" text-rendering="inherit" font-size="12" dy=".8em" y="664.7000000476837" x="1080.5">function showError(error)</text><text id="kity_text_114" text-rendering="inherit" font-size="12" dy=".8em" y="682.7000000476837" x="1080.5">  {</text><text id="kity_text_115" text-rendering="inherit" font-size="12" dy=".8em" y="700.7000000476837" x="1080.5">  switch(error.code)</text><text id="kity_text_116" text-rendering="inherit" font-size="12" dy=".8em" y="718.7000000476837" x="1080.5">	{</text><text id="kity_text_117" text-rendering="inherit" font-size="12" dy=".8em" y="736.7000000476837" x="1080.5">	case error.PERMISSION_DENIED:</text><text id="kity_text_118" text-rendering="inherit" font-size="12" dy=".8em" y="754.7000000476837" x="1080.5">	  x.innerHTML="User denied the request for Geolocation."</text><text id="kity_text_119" text-rendering="inherit" font-size="12" dy=".8em" y="772.7000000476837" x="1080.5">	  break;</text><text id="kity_text_120" text-rendering="inherit" font-size="12" dy=".8em" y="790.7000000476837" x="1080.5">	case error.POSITION_UNAVAILABLE:</text><text id="kity_text_121" text-rendering="inherit" font-size="12" dy=".8em" y="808.7000000476837" x="1080.5">	  x.innerHTML="Location information is unavailable."</text><text id="kity_text_122" text-rendering="inherit" font-size="12" dy=".8em" y="826.7000000476837" x="1080.5">	  break;</text><text id="kity_text_123" text-rendering="inherit" font-size="12" dy=".8em" y="844.7000000476837" x="1080.5">	case error.TIMEOUT:</text><text id="kity_text_124" text-rendering="inherit" font-size="12" dy=".8em" y="862.7000000476837" x="1080.5">	  x.innerHTML="The request to get user location timed out."</text><text id="kity_text_125" text-rendering="inherit" font-size="12" dy=".8em" y="880.7000000476837" x="1080.5">	  break;</text><text id="kity_text_126" text-rendering="inherit" font-size="12" dy=".8em" y="898.7000000476837" x="1080.5">	case error.UNKNOWN_ERROR:</text><text id="kity_text_127" text-rendering="inherit" font-size="12" dy=".8em" y="916.7000000476837" x="1080.5">	  x.innerHTML="An unknown error occurred."</text><text id="kity_text_128" text-rendering="inherit" font-size="12" dy=".8em" y="934.7000000476837" x="1080.5">	  break;</text><text id="kity_text_129" text-rendering="inherit" font-size="12" dy=".8em" y="952.7000000476837" x="1080.5">	}</text><text id="kity_text_130" text-rendering="inherit" font-size="12" dy=".8em" y="970.7000000476837" x="1080.5">  }</text></g></g><g id="minder_node12"><g id="node_expander11" style="cursor: pointer;"><path id="kity_path_237" fill="white" stroke="gray" d="M624.5,1124.5A6,6,0,1,1,612.5,1124.5A6,6,0,1,1,624.5,1124.5"></path><path id="kity_path_238" fill="none" stroke="gray" d="M614,1124.5L623,1124.5"></path></g><path id="node_outline12" fill="none" stroke="none" d="M629.5,1113.5h108a5,5,0,0,1,5,5v12a5,5,0,0,1,-5,5h-108a5,5,0,0,1,-5,-5v-12a5,5,0,0,1,5,-5z" stroke-width="3"></path><g id="node_text12" fill="black"><text id="kity_text_147" text-rendering="inherit" font-size="12" dy=".8em" y="1116.7000000476837" x="634.5">在地图中显示结果</text></g></g><g id="minder_node13"><g id="node_expander10" style="cursor: pointer;" display="none"><path id="kity_path_234" fill="white" stroke="gray" d="M860.5,1122.5A6,6,0,1,1,848.5,1122.5A6,6,0,1,1,860.5,1122.5"></path><path id="kity_path_235" fill="none" stroke="gray"></path></g><path id="node_outline11" fill="none" stroke="none" d="M865.5,1030.5h486a5,5,0,0,1,5,5v174a5,5,0,0,1,-5,5h-486a5,5,0,0,1,-5,-5v-174a5,5,0,0,1,5,-5z" stroke-width="3"></path><g id="node_text11" fill="black"><text id="kity_text_136" text-rendering="inherit" font-size="12" dy=".8em" y="1033.7000000476837" x="870.5">以Google地图为例：</text><text id="kity_text_137" text-rendering="inherit" font-size="12" dy=".8em" y="1051.7000000476837" x="870.5">function showPosition(position)</text><text id="kity_text_138" text-rendering="inherit" font-size="12" dy=".8em" y="1069.7000000476837" x="870.5">{</text><text id="kity_text_139" text-rendering="inherit" font-size="12" dy=".8em" y="1087.7000000476837" x="870.5">var latlon=position.coords.latitude+","+position.coords.longitude;</text><text id="kity_text_140" text-rendering="inherit" font-size="12" dy=".8em" y="1105.7000000476837" x="870.5"></text><text id="kity_text_141" text-rendering="inherit" font-size="12" dy=".8em" y="1123.7000000476837" x="870.5">var img_url="http://maps.googleapis.com/maps/api/staticmap?center="</text><text id="kity_text_142" text-rendering="inherit" font-size="12" dy=".8em" y="1141.7000000476837" x="870.5">+latlon+"&amp;zoom=14&amp;size=400x300&amp;sensor=false";</text><text id="kity_text_143" text-rendering="inherit" font-size="12" dy=".8em" y="1159.7000000476837" x="870.5"></text><text id="kity_text_144" text-rendering="inherit" font-size="12" dy=".8em" y="1177.7000000476837" x="870.5">document.getElementById("mapholder").innerHTML="&lt;img src='"+img_url+"' /&gt;";</text><text id="kity_text_145" text-rendering="inherit" font-size="12" dy=".8em" y="1195.7000000476837" x="870.5">}</text></g></g><g id="minder_node14"><g id="node_expander22" style="cursor: pointer;"><path id="kity_path_270" fill="white" stroke="gray" d="M568.5,1445.5A6,6,0,1,1,556.5,1445.5A6,6,0,1,1,568.5,1445.5"></path><path id="kity_path_271" fill="none" stroke="gray" d="M558,1445.5L567,1445.5"></path></g><path id="node_outline23" fill="none" stroke="none" d="M573.5,1434.5h60a5,5,0,0,1,5,5v12a5,5,0,0,1,-5,5h-60a5,5,0,0,1,-5,-5v-12a5,5,0,0,1,5,-5z" stroke-width="3"></path><g id="node_text23" fill="black"><text id="kity_text_171" text-rendering="inherit" font-size="12" dy=".8em" y="1437.7000000476837" x="578.5">位置信息</text></g></g><g id="minder_node15"><g id="node_expander21" style="cursor: pointer;"><path id="kity_path_267" fill="white" stroke="gray" d="M683.5,1445.5A6,6,0,1,1,671.5,1445.5A6,6,0,1,1,683.5,1445.5"></path><path id="kity_path_268" fill="none" stroke="gray" d="M673,1445.5L682,1445.5"></path></g><path id="node_outline22" fill="none" stroke="none" d="M688.5,1434.5h215a5,5,0,0,1,5,5v12a5,5,0,0,1,-5,5h-215a5,5,0,0,1,-5,-5v-12a5,5,0,0,1,5,-5z" stroke-width="3"></path><g id="node_text22" fill="black"><text id="kity_text_169" text-rendering="inherit" font-size="12" dy=".8em" y="1437.7000000476837" x="693.5">getCurrentPosition() 方法 - 返回数据</text></g></g><g id="minder_node16"><g id="node_expander20" style="cursor: pointer;"><path id="kity_path_264" fill="white" stroke="gray" d="M948.5,1445.5A6,6,0,1,1,936.5,1445.5A6,6,0,1,1,948.5,1445.5"></path><path id="kity_path_265" fill="none" stroke="gray" d="M938,1445.5L947,1445.5"></path></g><path id="node_outline21" fill="none" stroke="none" d="M953.5,1416.5h306a5,5,0,0,1,5,5v48a5,5,0,0,1,-5,5h-306a5,5,0,0,1,-5,-5v-48a5,5,0,0,1,5,-5z" stroke-width="3"></path><g id="node_text21" fill="black"><text id="kity_text_165" text-rendering="inherit" font-size="12" dy=".8em" y="1419.7000000476837" x="958.5">若成功，则 getCurrentPosition() 方法返回对象。</text><text id="kity_text_166" text-rendering="inherit" font-size="12" dy=".8em" y="1437.7000000476837" x="958.5">始终会返回 latitude、longitude 以及 accuracy 属性。</text><text id="kity_text_167" text-rendering="inherit" font-size="12" dy=".8em" y="1455.7000000476837" x="958.5">如果可用，则会返回其他属性</text></g></g><g id="minder_node17"><g id="node_expander12" style="cursor: pointer;" display="none"><path id="kity_path_240" fill="white" stroke="gray" d="M1304.5,1263.5A6,6,0,1,1,1292.5,1263.5A6,6,0,1,1,1304.5,1263.5"></path><path id="kity_path_241" fill="none" stroke="gray"></path></g><path id="node_outline13" fill="none" stroke="none" d="M1309.5,1252.5h141a5,5,0,0,1,5,5v12a5,5,0,0,1,-5,5h-141a5,5,0,0,1,-5,-5v-12a5,5,0,0,1,5,-5z" stroke-width="3"></path><g id="node_text13" fill="black"><text id="kity_text_149" text-rendering="inherit" font-size="12" dy=".8em" y="1255.7000000476837" x="1314.5">latitude 十进制数的纬度</text></g></g><g id="minder_node18"><g id="node_expander13" style="cursor: pointer;" display="none"><path id="kity_path_243" fill="white" stroke="gray" d="M1304.5,1315.5A6,6,0,1,1,1292.5,1315.5A6,6,0,1,1,1304.5,1315.5"></path><path id="kity_path_244" fill="none" stroke="gray"></path></g><path id="node_outline14" fill="none" stroke="none" d="M1309.5,1304.5h153a5,5,0,0,1,5,5v12a5,5,0,0,1,-5,5h-153a5,5,0,0,1,-5,-5v-12a5,5,0,0,1,5,-5z" stroke-width="3"></path><g id="node_text14" fill="black"><text id="kity_text_151" text-rendering="inherit" font-size="12" dy=".8em" y="1307.7000000476837" x="1314.5">longitude 十进制数的经度</text></g></g><g id="minder_node19"><g id="node_expander14" style="cursor: pointer;" display="none"><path id="kity_path_246" fill="white" stroke="gray" d="M1304.5,1367.5A6,6,0,1,1,1292.5,1367.5A6,6,0,1,1,1304.5,1367.5"></path><path id="kity_path_247" fill="none" stroke="gray"></path></g><path id="node_outline15" fill="none" stroke="none" d="M1309.5,1356.5h111a5,5,0,0,1,5,5v12a5,5,0,0,1,-5,5h-111a5,5,0,0,1,-5,-5v-12a5,5,0,0,1,5,-5z" stroke-width="3"></path><g id="node_text15" fill="black"><text id="kity_text_153" text-rendering="inherit" font-size="12" dy=".8em" y="1359.7000000476837" x="1314.5">accuracy 位置精度</text></g></g><g id="minder_node20"><g id="node_expander15" style="cursor: pointer;" display="none"><path id="kity_path_249" fill="white" stroke="gray" d="M1304.5,1419.5A6,6,0,1,1,1292.5,1419.5A6,6,0,1,1,1304.5,1419.5"></path><path id="kity_path_250" fill="none" stroke="gray"></path></g><path id="node_outline16" fill="none" stroke="none" d="M1309.5,1408.5h190a5,5,0,0,1,5,5v12a5,5,0,0,1,-5,5h-190a5,5,0,0,1,-5,-5v-12a5,5,0,0,1,5,-5z" stroke-width="3"></path><g id="node_text16" fill="black"><text id="kity_text_155" text-rendering="inherit" font-size="12" dy=".8em" y="1411.7000000476837" x="1314.5">altitude 海拔，海平面以上以米计</text></g></g><g id="minder_node21"><g id="node_expander16" style="cursor: pointer;" display="none"><path id="kity_path_252" fill="white" stroke="gray" d="M1304.5,1471.5A6,6,0,1,1,1292.5,1471.5A6,6,0,1,1,1304.5,1471.5"></path><path id="kity_path_253" fill="none" stroke="gray"></path></g><path id="node_outline17" fill="none" stroke="none" d="M1309.5,1460.5h193a5,5,0,0,1,5,5v12a5,5,0,0,1,-5,5h-193a5,5,0,0,1,-5,-5v-12a5,5,0,0,1,5,-5z" stroke-width="3"></path><g id="node_text17" fill="black"><text id="kity_text_157" text-rendering="inherit" font-size="12" dy=".8em" y="1463.7000000476837" x="1314.5">altitudeAccuracy 位置的海拔精度</text></g></g><g id="minder_node22"><g id="node_expander17" style="cursor: pointer;" display="none"><path id="kity_path_255" fill="white" stroke="gray" d="M1304.5,1523.5A6,6,0,1,1,1292.5,1523.5A6,6,0,1,1,1304.5,1523.5"></path><path id="kity_path_256" fill="none" stroke="gray"></path></g><path id="node_outline18" fill="none" stroke="none" d="M1309.5,1512.5h193a5,5,0,0,1,5,5v12a5,5,0,0,1,-5,5h-193a5,5,0,0,1,-5,-5v-12a5,5,0,0,1,5,-5z" stroke-width="3"></path><g id="node_text18" fill="black"><text id="kity_text_159" text-rendering="inherit" font-size="12" dy=".8em" y="1515.7000000476837" x="1314.5">heading 方向，从正北开始以度计</text></g></g><g id="minder_node23"><g id="node_expander18" style="cursor: pointer;" display="none"><path id="kity_path_258" fill="white" stroke="gray" d="M1304.5,1575.5A6,6,0,1,1,1292.5,1575.5A6,6,0,1,1,1304.5,1575.5"></path><path id="kity_path_259" fill="none" stroke="gray"></path></g><path id="node_outline19" fill="none" stroke="none" d="M1309.5,1564.5h150a5,5,0,0,1,5,5v12a5,5,0,0,1,-5,5h-150a5,5,0,0,1,-5,-5v-12a5,5,0,0,1,5,-5z" stroke-width="3"></path><g id="node_text19" fill="black"><text id="kity_text_161" text-rendering="inherit" font-size="12" dy=".8em" y="1567.7000000476837" x="1314.5">speed 速度，以米/每秒计</text></g></g><g id="minder_node24"><g id="node_expander19" style="cursor: pointer;" display="none"><path id="kity_path_261" fill="white" stroke="gray" d="M1304.5,1627.5A6,6,0,1,1,1292.5,1627.5A6,6,0,1,1,1304.5,1627.5"></path><path id="kity_path_262" fill="none" stroke="gray"></path></g><path id="node_outline20" fill="none" stroke="none" d="M1309.5,1616.5h164a5,5,0,0,1,5,5v12a5,5,0,0,1,-5,5h-164a5,5,0,0,1,-5,-5v-12a5,5,0,0,1,5,-5z" stroke-width="3"></path><g id="node_text20" fill="black"><text id="kity_text_163" text-rendering="inherit" font-size="12" dy=".8em" y="1619.7000000476837" x="1314.5">timestamp 响应的日期/时间</text></g></g><g id="minder_node25"><g id="node_expander25" style="cursor: pointer;"><path id="kity_path_279" fill="white" stroke="gray" d="M522.5,1737.5A6,6,0,1,1,510.5,1737.5A6,6,0,1,1,522.5,1737.5"></path><path id="kity_path_280" fill="none" stroke="gray" d="M512,1737.5L521,1737.5"></path></g><path id="node_outline26" fill="none" stroke="none" d="M527.5,1726.5h36a5,5,0,0,1,5,5v12a5,5,0,0,1,-5,5h-36a5,5,0,0,1,-5,-5v-12a5,5,0,0,1,5,-5z" stroke-width="3"></path><g id="node_text26" fill="black"><text id="kity_text_177" text-rendering="inherit" font-size="12" dy=".8em" y="1729.7000000476837" x="532.5">其他</text></g></g><g id="minder_node26"><g id="node_expander23" style="cursor: pointer;" display="none"><path id="kity_path_273" fill="white" stroke="gray" d="M608.5,1711.5A6,6,0,1,1,596.5,1711.5A6,6,0,1,1,608.5,1711.5"></path><path id="kity_path_274" fill="none" stroke="gray"></path></g><path id="node_outline24" fill="none" stroke="none" d="M613.5,1700.5h534a5,5,0,0,1,5,5v12a5,5,0,0,1,-5,5h-534a5,5,0,0,1,-5,-5v-12a5,5,0,0,1,5,-5z" stroke-width="3"></path><g id="node_text24" fill="black"><text id="kity_text_173" text-rendering="inherit" font-size="12" dy=".8em" y="1703.7000000476837" x="618.5">watchPosition() - 返回用户的当前位置，并继续返回用户移动时的更新位置（就像汽车上的 GPS）</text></g></g><g id="minder_node27"><g id="node_expander24" style="cursor: pointer;" display="none"><path id="kity_path_276" fill="white" stroke="gray" d="M608.5,1763.5A6,6,0,1,1,596.5,1763.5A6,6,0,1,1,608.5,1763.5"></path><path id="kity_path_277" fill="none" stroke="gray"></path></g><path id="node_outline25" fill="none" stroke="none" d="M613.5,1752.5h239a5,5,0,0,1,5,5v12a5,5,0,0,1,-5,5h-239a5,5,0,0,1,-5,-5v-12a5,5,0,0,1,5,-5z" stroke-width="3"></path><g id="node_text25" fill="black"><text id="kity_text_175" text-rendering="inherit" font-size="12" dy=".8em" y="1755.7000000476837" x="618.5">clearWatch() - 停止 watchPosition() 方法</text></g></g></g></g></svg>